<svg width="115" height="75" viewBox="0 0 115 75" fill="none" xmlns="http://www.w3.org/2000/svg">
<g clip-path="url(#clip0_458_14063)">
<path d="M60.887 49.7651C60.9075 49.669 61.1395 49.3407 61.2319 49.2648C61.6233 48.9432 66.6427 48.0409 67.4169 48.002C67.8531 47.9801 68.4012 48.0348 68.4038 48.5718L68.1484 61.4339C67.8474 74.2732 54.7928 78.9417 45.0988 71.3254C41.2999 68.3406 38.8355 63.8609 36.3102 59.8295L35.9303 68.5809C35.7217 69.3956 31.9948 69.7998 31.6551 69.5643C31.4807 69.4319 31.5115 69.2406 31.489 69.0548C30.7892 63.2834 32.2011 56.3333 31.6591 50.4347C32.111 48.8431 31.6018 46.9398 31.8456 45.3783C31.894 45.0686 32.0032 44.8038 32.2755 44.6248C32.7789 44.2936 37.9655 43.4787 38.8468 43.4247C41.9886 43.2323 44.3652 44.3254 44.9887 47.5874C45.5256 50.3962 44.7026 54.2549 42.478 56.1941C42.1417 56.4873 40.9879 57.0991 40.8676 57.2926C40.5827 57.7507 41.5484 59.3672 41.8334 59.8804C45.0708 65.7098 50.659 72.5175 58.1852 70.4005C62.6032 69.1578 64.2937 64.7627 63.7567 60.5053C58.9701 64.1287 55.0493 61.9717 54.1774 56.3147C53.0917 49.2701 55.2459 38.3702 64.4973 39.3844C67.9018 39.7576 69.056 42.8006 66.0104 44.7465C64.4176 45.7642 64.5729 43.9669 63.5458 43.5508C60.0765 42.1452 58.6777 47.8964 58.5154 50.2656C58.3893 52.1061 58.1333 57.4501 60.5032 57.9291C63.29 58.4923 64.2326 54.8577 64.0968 52.7242C63.8862 52.5153 60.887 53.4629 60.887 52.6405C60.887 51.8874 60.7532 50.391 60.887 49.7651ZM40.0646 48.036C39.558 47.5179 36.8114 47.4707 36.4736 47.9828L36.2831 53.8012C36.3511 55.2778 38.5759 54.253 39.2681 53.6565C40.5603 52.543 41.2715 49.2704 40.0646 48.036Z" fill="black"/>
<path d="M21.6636 42.6234C31.2728 42.4571 30.3173 57.6648 28.0766 63.7611C25.9696 69.4938 20.7243 74.8834 14.0914 73.4532C2.45303 70.9436 4.39426 46.7192 14.9462 44.0166C16.0708 43.7286 16.9449 44.017 17.5233 43.8972C17.812 43.8374 18.7573 43.2152 19.3768 43.0409C20.05 42.8516 20.9789 42.6353 21.6636 42.6234ZM14.2714 50.8655C12.3948 54.4756 11.6468 58.5169 12.2886 62.5731C12.8783 66.2997 15.2898 69.9629 19.4857 67.8438C24.3843 65.3697 25.7855 52.9525 23.1417 48.6609C21.054 45.2719 16.9042 48.1083 20.2653 50.6955C20.9563 51.2273 22.0201 51.3924 22.1971 52.4807C22.7518 55.8913 19.0829 56.135 16.9672 54.5055C15.604 53.4556 15.4631 52.3447 14.6472 51.0827C14.5415 50.9191 14.6656 50.7796 14.2714 50.8655Z" fill="black"/>
<path d="M91.5838 57.587C91.0107 57.9401 90.32 58.0177 89.6616 58.1135C89.155 58.1871 87.9987 58.4076 87.647 58.149L82.3401 48.1594L81.9577 58.6866C81.6557 59.4946 78.4277 59.8318 78.0145 59.5064C77.809 59.3446 77.8009 59.1425 77.7701 58.9065C77.1261 53.9753 78.5187 47.7425 77.9398 42.6547C78.4402 41.5277 77.7685 38.7075 78.1977 37.8389C78.3501 37.5304 78.9154 37.4162 79.2311 37.3514C79.6912 37.257 81.7029 37.0034 82.0647 37.0437C82.2317 37.0622 82.3726 37.1494 82.4989 37.2546L87.7417 47.3121C87.7959 44.7494 87.6776 42.174 87.7364 39.6102C87.7456 39.2103 87.9073 38.8406 87.9193 38.4402C87.9555 37.2278 87.6757 34.3284 87.9472 33.3941C88.2518 32.3457 91.203 32.1568 92.1413 32.3381C92.7781 33.1658 92.3111 34.0451 92.297 34.8744C92.2317 38.7133 92.0498 42.5503 91.9591 46.3757C91.8707 50.103 92.2705 53.9407 91.5838 57.587Z" fill="black"/>
<path d="M97.3315 50.0584C97.5132 50.2402 97.6688 51.1294 97.848 51.4857C99.0273 53.8315 102.685 53.2397 103.207 50.7052C103.916 47.2661 99.5837 46.4267 97.4173 44.9825C92.5164 41.7151 93.7732 34.0617 99.1414 32.0867C101.089 31.3702 104.933 31.1267 106.579 32.5953C108.189 34.0328 106.227 38.2903 104.587 37.8115C103.637 37.5342 103.638 35.4493 101.39 35.6779C99.3683 35.8834 98.5587 37.7701 99.2737 39.5718C99.8573 41.0425 102.733 41.918 104.072 42.7165C112.56 47.7786 106.396 58.639 97.4991 56.9092C96.0996 56.6372 93.8337 55.6875 93.8233 53.9949C93.8183 53.1984 94.8416 50.914 95.4231 50.3509C95.8824 49.9061 96.833 49.5595 97.3315 50.0584Z" fill="black"/>
<path d="M67.8397 34.7673C67.2993 34.4347 66.9656 31.6871 67.8607 31.0392C69.2359 30.0437 74.6838 28.5782 76.5591 28.079C86.4946 25.4339 100.903 23.5448 111.135 24.3121C111.625 24.3488 113.03 24.5377 113.405 24.7453C114.634 25.4257 113.942 28.693 112.995 28.8788C98.9056 26.9494 84.2935 29.1197 70.9767 33.8211C70.3192 34.0532 68.4331 35.1326 67.8397 34.7673Z" fill="black"/>
<path d="M74.3697 38.0543C75.0263 38.0206 75.3189 37.9817 75.4208 38.7639C75.711 40.9912 75.2636 43.4805 75.2371 45.6993C75.1898 49.6681 75.6818 54.9385 75.2246 58.7103C75.1533 59.2982 75.0159 59.8551 74.4452 60.1286C74.0866 60.3004 71.6491 60.7063 71.2784 60.6749C70.7301 60.6286 70.7157 60.1722 70.6738 59.7545C70.4615 57.6425 70.834 55.413 70.8595 53.3244C70.9066 49.4679 70.8262 45.6634 71.0284 41.8232C71.0813 40.8183 70.8496 39.6868 71.175 38.7564C71.4608 38.3801 73.7954 38.0839 74.3697 38.0543Z" fill="black"/>
<path d="M47.4158 63.8477C47.0684 63.4847 47.1842 59.0747 47.1977 58.2135C47.2605 54.1888 47.3641 50.07 47.5505 46.0507C47.5873 45.2575 47.3289 43.0138 47.7864 42.5659C48.2383 42.1234 51.5758 41.6498 51.8614 42.0582L51.7214 62.2359C51.6115 62.8392 51.5463 63.2323 50.9235 63.4666C50.443 63.6473 47.6917 64.1358 47.4158 63.8477Z" fill="black"/>
<path d="M29.5092 36.8648L41.2138 35.1338L42.1397 35.2191C42.6722 35.4792 42.747 37.9461 41.8437 38.1377L30.2197 39.8774C28.8028 39.9331 29.1137 37.7724 29.5092 36.8648Z" fill="black"/>
<path d="M73.7242 69.6386C72.9699 69.3958 70.9808 70.4048 70.598 69.6385L70.5103 69.0573C70.6379 68.1364 72.9787 68.3627 73.715 68.1079L73.7239 66.7627L71.4629 67.0616C69.8916 65.2268 72.4618 65.4287 73.7164 65.2339C73.5573 64.09 73.9821 63.3164 75.1706 63.8775L75.2439 65.0727C75.9455 65.2032 77.1303 64.5735 77.697 65.0694C78.5341 66.5655 76.2091 66.382 75.2533 66.6024L75.2451 67.9475C76.1841 67.9817 78.8058 66.9028 78.0028 68.7549C77.7764 69.2771 75.8467 69.2013 75.2434 69.2997L75.2213 72.4063C75.072 72.8492 73.7242 73.0034 73.7242 72.5985V69.6386Z" fill="black"/>
<path d="M82.3399 65.2406C83.1116 65.1657 85.6278 64.1943 85.8436 65.3452C86.03 66.3384 84.6473 69.1749 83.9447 69.9783C83.1366 70.9024 80.0768 73.487 80.337 70.6773C82.2564 69.9293 83.8677 68.3626 84.1956 66.2566L82.4087 66.5822C82.027 67.115 83.2849 68.3376 82.2206 68.775C81.7994 68.8808 81.3735 68.3422 81.3217 67.9479L79.5842 68.9408L78.9863 68.0559C80.3631 66.8372 80.915 65.6142 81.1439 63.792L82.2645 63.8772L82.3399 65.2406Z" fill="black"/>
<path d="M102.811 67.8098C104.186 67.0583 105.565 65.8926 106.394 64.5502C106.517 64.3499 107.166 63.2062 107.164 63.1253C107.155 62.7995 106.791 62.9884 106.7 62.9912C105.756 63.0209 103.581 63.5535 102.895 63.3452C102.687 63.2821 102.538 63.1219 102.462 62.9207L102.648 62.0669C102.839 61.8791 107.397 61.1806 107.937 61.175C109.688 61.1567 108.824 62.7911 108.38 63.8334C107.638 65.5764 106.009 67.6601 104.35 68.5924C103.376 69.14 102.654 69.1609 102.811 67.8098Z" fill="black"/>
<path d="M91.4581 66.0873C90.4621 66.085 88.3471 66.7442 87.4949 66.6012C86.8203 66.4881 86.8197 65.3437 87.6986 65.1118C88.5827 64.8785 91.2822 64.5647 92.2188 64.5512C93.6798 64.5301 93.363 65.3621 93.0646 66.4258C92.5794 68.156 91.1763 70.4338 89.3846 71.029C88.797 71.2242 88.4147 71.2353 88.2782 70.528C88.1211 69.7143 89.6249 69.3849 90.2751 68.7066C90.8877 68.0676 91.4713 67.0016 91.4581 66.0873Z" fill="black"/>
<path d="M100.524 63.3982C100.963 63.2516 101.486 63.6657 101.566 64.1107C100.843 66.0239 97.5442 69.7744 95.5548 70.119C94.7527 70.258 94.3901 69.4575 94.8252 68.8641C94.9879 68.6421 97.0495 67.5955 97.6283 67.1057C97.9958 66.7947 98.5872 66.2024 98.8875 65.8296C99.2254 65.41 100.273 63.4818 100.524 63.3982Z" fill="black"/>
<path d="M94.7906 62.5595C95.1711 62.4561 96.8104 63.5749 96.9551 63.8931C97.1134 64.2412 96.8307 64.8426 96.5253 64.9992C96.2062 65.1629 94.3967 63.9632 94.2437 63.7188C93.9834 63.3027 94.384 62.67 94.7906 62.5595Z" fill="black"/>
<path d="M25.5443 34.1599C25.9972 34.6388 25.7572 37.8676 25.4221 38.6074C25.0121 39.0234 16.6413 40.3461 15.2761 40.6255C10.717 41.5582 6.1889 42.6474 1.66808 43.7418C1.00503 43.809 0.387125 43.8832 0 43.2494L3.11697 2.4029C3.68365 1.7827 7.19112 2.61212 8.05567 2.87782C8.77087 3.09763 9.39126 3.25434 9.53713 4.11451C8.88042 13.2549 7.66353 22.3618 7.00748 31.5C6.90916 32.8695 6.6702 34.7841 6.6922 36.0726C6.69538 36.2588 6.79027 36.532 6.91795 36.6598C7.58259 37.3249 23.3232 33.6555 25.5443 34.1599Z" fill="black"/>
<path d="M38.3809 28.8343C38.0394 29.1458 35.5094 29.5192 35.1148 29.228L30.1477 20.252L29.9412 29.6023C29.7145 30.3914 26.5021 30.8996 26.1763 30.2313L26.2541 16.4387C26.7014 14.8328 26.2123 12.9445 26.4221 11.3637C26.5821 10.159 29.335 10.1382 30.2435 10.4281L34.6653 19.3565L35.0434 19.5738L35.241 9.70811C35.4317 9.13749 38.5977 8.87557 38.8554 9.24658C38.958 11.9243 38.9698 14.6188 38.9372 17.2994C38.8988 20.444 39.0415 24.5953 38.7692 27.6172C38.7398 27.9434 38.6091 28.6261 38.3809 28.8343Z" fill="black"/>
<path d="M48.185 7.6164C50.0387 7.49743 53.0871 8.17869 52.5716 10.6564C52.4049 11.4573 50.8561 13.4233 49.9835 12.8231C48.9314 12.0995 48.8745 10.2764 46.7485 11.5897C44.276 13.1171 43.6537 21.435 45.0343 23.6933C45.8406 25.0121 47.5119 24.579 48.2924 23.4531C48.6812 22.8923 49.5169 20.1554 48.786 19.9258C46.6756 20.4111 46.1343 20.2866 46.3533 17.9593C46.4832 16.5787 47.3504 16.6414 48.5221 16.4103C49.1165 16.293 52.085 15.8256 52.3958 15.9729C53.0081 16.2632 52.8 18.256 52.7778 18.9804C52.7679 19.304 52.6106 19.6302 52.6036 19.9899C52.5698 21.7375 52.9041 25.0538 52.5737 26.5562C52.3978 27.3561 50.8655 27.5783 50.1567 27.5375C49.2168 27.4833 49.4442 27.1618 48.9791 26.512C45.9142 29.364 42.0054 28.7394 40.9082 24.4423C39.4628 18.7816 40.7531 8.09336 48.185 7.6164Z" fill="black"/>
<path d="M65.9303 6.06725C66.4216 7.16264 65.9714 8.42424 65.9473 9.50404C65.8996 11.6462 66.0397 13.8053 65.9613 15.9452C65.866 18.546 65.7806 22.5663 63.9318 24.5685C62.2743 26.3633 58.003 27.1499 56.1528 25.4147C53.8263 23.2328 54.7473 17.0607 54.8134 14.0847C54.8383 12.9618 54.6032 8.17122 54.8906 7.56569C55.2214 6.86884 57.8212 6.74032 58.541 6.98767C58.6004 7.2024 58.6994 7.42959 58.6993 7.65547C58.6975 11.7442 58.0058 17.386 58.5372 21.3357C58.85 23.661 61.6098 23.1514 61.8817 20.8243C62.2928 17.3066 62.0949 13.5659 62.2453 10.0254C62.2791 9.22886 62.0698 7.22943 62.2615 6.65892C62.4525 6.09089 65.3144 5.96547 65.9303 6.06725Z" fill="black"/>
<path d="M88.0817 14.6688C85.274 15.2587 85.2442 14.408 85.7012 11.8635C85.9313 11.6397 86.2262 11.579 86.5231 11.5026C87.1008 11.354 91.0602 10.7029 91.3503 10.8C91.4839 10.8447 91.5713 10.9157 91.6044 11.0571L91.4593 21.0149C91.4665 22.3181 89.6583 22.0547 88.7088 22.2581L87.9967 21.1001C85.0892 24.1474 81.306 23.1158 80.2636 19.0304C79.1121 14.5168 79.7337 5.35434 84.8739 3.42397C87.0035 2.62419 91.7877 2.67031 91.279 5.94854C91.1567 6.73653 89.6914 8.56926 88.8283 7.91789C88.4305 7.61767 88.289 6.53927 87.4851 6.38473C84.4028 5.79221 83.6186 11.1335 83.5125 13.2238C83.4274 14.9021 83.4523 20.5376 86.5105 18.9307C87.8783 18.212 88.1347 16.057 88.0817 14.6688Z" fill="black"/>
<path d="M97.2022 9.59567C97.9527 9.79423 101.617 8.8962 101.949 9.35622C102.074 9.86211 101.999 12.1574 101.767 12.3911L97.0519 13.1656L96.8636 17.5458L102.752 17.0612C103.006 17.2208 103.317 20.5984 102.147 20.5512C99.8242 20.6572 97.3785 21.2978 95.0894 21.4331C94.7237 21.4548 93.5699 21.5343 93.391 21.2768C93.2864 19.1639 93.2789 17.0315 93.3093 14.9154C93.3533 11.8492 93.511 8.69046 93.6621 5.62795C93.7025 4.81047 93.5218 3.65123 93.6552 2.9148C93.7652 2.30696 94.7823 2.2647 95.2831 2.17706C97.2763 1.82822 100.738 1.34144 102.701 1.33692C103.808 1.33436 103.595 3.97443 103.189 4.51258C102.662 5.21266 98.2609 5.04964 97.2022 5.53641V9.59567Z" fill="black"/>
<path d="M111.501 3.90253C110.582 3.01014 108.676 3.51832 108.385 4.81044C107.719 7.77353 111.43 8.30565 113.16 9.76822C116.248 12.3779 115.26 18.1045 111.606 19.7056C109.973 20.4208 104.666 20.8384 104.304 18.4638C104.162 17.5276 104.912 14.9117 105.94 14.6996C107.354 14.4079 107.009 15.9784 107.684 16.6047C109.522 18.3107 113.314 15.1043 110.288 12.6439C108.4 11.1087 105.782 10.9119 104.889 8.07184C103.248 2.86018 108.181 -1.50832 113.128 0.497481C115.02 1.26428 114.961 3.05064 113.829 4.51136C112.586 6.11643 112.141 4.52399 111.501 3.90253Z" fill="black"/>
<path d="M57.6779 37.756C57.5834 38.3086 56.5584 38.4294 56.0801 38.3485C55.2177 38.2027 54.35 34.9579 53.6242 34.2887V38.4326C53.302 38.8976 51.9616 39.1006 51.7898 38.5781L51.9582 29.9989C52.1013 29.5763 53.4396 29.4189 53.7956 29.6361L55.82 33.6122V29.6375C55.82 28.9737 57.6779 28.6888 57.6779 29.1301V37.756Z" fill="black"/>
<path d="M59.0382 28.7159C60.5388 28.5206 62.7877 27.8894 63.8358 29.3909C64.6992 30.6278 64.4969 34.338 63.9085 35.7076C63.5053 36.6461 62.7725 37.1782 61.822 37.5084C61.2748 37.6985 59.334 38.1969 59.0147 37.771C58.4534 37.0221 59.0956 30.1293 59.0382 28.7159ZM60.887 35.811C62.8012 35.8957 62.5365 32.6527 62.415 31.3211C62.317 30.2462 61.9402 30.0218 60.887 30.2295V35.811Z" fill="black"/>
<path d="M48.7126 37.8522L47.2039 38.0924L46.781 39.5296C46.5307 39.9466 44.9886 40.0681 44.8547 39.5956L46.8725 30.4879C47.2316 30.1839 49.0822 29.9646 49.2723 30.6125L50.914 38.6261C51.1141 39.2403 49.7096 39.4584 49.3471 39.3423C48.9096 39.2021 48.8749 38.241 48.7126 37.8522ZM48.3888 36.1498L48.3409 35.2661L47.8835 33.4444L47.3752 36.1481L48.3888 36.1498Z" fill="black"/>
<path d="M78.9186 23.2545C77.8836 23.702 76.7281 23.8959 75.6046 23.7802L74.8287 20.2446C74.7037 20.0617 74.5171 20.0712 74.3229 20.0729C73.9341 20.0765 71.0047 20.4882 70.8919 20.6292L69.8385 24.5627C69.2583 24.8369 66.9521 25.3898 66.6118 24.8682L70.9672 5.35412C71.2517 5.26201 71.5311 5.13695 71.8248 5.071C72.36 4.95084 74.9135 4.61348 75.2446 4.7739C75.4089 4.85353 75.5354 5.08154 75.6173 5.24652C76.6176 10.6408 78.1036 16.1585 78.9063 21.5719C78.9743 22.0306 79.2578 22.9205 78.9186 23.2545ZM71.697 17.0361C72.1399 17.0191 74.1075 16.9778 74.2173 16.5931L73.2157 10.7789C72.9131 10.8313 72.9259 11.1211 72.8548 11.3462C72.3049 13.0865 72.1015 15.2335 71.697 17.0361Z" fill="black"/>
<path d="M24.5321 30.6968C24.2512 30.9681 21.5079 31.5296 21.191 31.3352L20.1996 27.6219L16.1287 28.1181C15.5592 28.9359 15.419 31.8116 14.6725 32.2415C14.1566 32.5386 11.6093 32.8956 11.418 32.3199L15.9506 12.2102C16.0704 12.0334 16.2338 11.9262 16.426 11.8406C16.8222 11.6642 19.4545 11.2754 19.9318 11.2823C20.3253 11.288 20.7064 11.4768 20.9359 11.799C22.0067 17.548 23.6636 23.4102 24.5179 29.1836C24.5776 29.5869 24.8279 30.4111 24.5321 30.6968ZM19.4918 23.9575C19.1451 22.0986 18.9378 19.9983 18.4394 18.1874C18.3916 18.0136 18.3977 17.6751 18.1554 17.7153L16.8423 24.0641C16.9407 24.604 19.0885 24.0424 19.4918 23.9575Z" fill="black"/>
</g>
<defs>
<clipPath id="clip0_458_14063">
<rect width="115" height="75" fill="white"/>
</clipPath>
</defs>
</svg>
