<svg width="126" height="75" viewBox="0 0 126 75" fill="none" xmlns="http://www.w3.org/2000/svg">
<g clip-path="url(#clip0_460_14093)">
<path d="M48.1919 70.9182C47.6385 70.9533 47.0924 70.6061 46.5357 70.7718C45.7773 70.9974 45.5677 72.5681 44.45 72.0776C43.9215 71.8456 44.2091 71.5178 44.4478 71.1859C44.7419 70.7768 45.6928 69.73 46.1538 69.6817C46.4551 69.6501 48.7313 69.8179 48.9576 69.8845C50.2925 70.2772 48.5989 73.2378 47.8383 73.8593C47.2784 74.3169 44.3774 75.65 44.8172 74.2271C44.9173 73.9032 45.9698 73.6681 46.351 73.4427C47.3587 72.8468 48.1488 72.2 48.1919 70.9182Z" fill="black"/>
<path d="M77.6674 70.2584C77.9637 70.0204 78.4167 70.0064 78.7772 70.0115C79.3148 70.0191 81.2654 70.1831 81.4507 70.5602C81.9166 71.5078 80.958 73.2988 80.2074 73.9499C79.6292 74.4515 77.9599 75.2517 77.2635 74.9238C75.9774 74.3182 78.2584 73.809 78.6293 73.6206C79.7495 73.0515 79.9849 72.4631 80.4655 71.3616C80.4469 71.0095 78.9118 71.0274 78.6263 71.1247C78.2364 71.2576 77.8685 72.598 76.8541 72.3158C76.6564 72.2608 76.343 71.9686 76.3826 71.7438C76.3995 71.6471 77.5897 70.3208 77.6674 70.2584Z" fill="black"/>
<path d="M67.808 70.9173H64.063L64.2345 70.1091C64.9739 69.8166 68.7799 69.586 69.0329 70.3164C69.4973 71.6566 68.1278 73.4776 67.0401 74.1571C66.3611 74.5813 64.0335 75.6154 64.3219 74.1148C65.8275 73.4543 67.7889 72.9141 67.808 70.9173Z" fill="black"/>
<path d="M54.6111 71.986H50.9553C50.7036 71.8548 50.57 71.3141 50.7048 71.1114C50.8467 70.8979 55.3399 70.585 55.6546 71.3935C56.3585 73.4557 52.2352 75.8725 51.4824 74.664C50.9587 73.8234 52.8322 73.7804 53.3497 73.4866C53.8015 73.23 54.3913 72.4643 54.6111 71.986Z" fill="black"/>
<path d="M83.4122 71.8076H92.5073C92.8612 71.8076 92.8615 72.8761 92.5073 72.8761H83.4122C83.1198 72.8761 82.9828 71.9809 83.4122 71.8076Z" fill="black"/>
<path d="M61.6554 70.9168C62.7409 71.1429 62.2486 72.8216 61.7187 73.473C60.9956 74.3619 58.4559 75.6676 57.8254 74.2099C58.9118 73.5164 60.9979 73.7215 61.0264 71.9922C59.8678 71.4971 58.7672 72.149 57.5803 71.9576C57.0515 71.786 57.309 70.9168 57.5537 70.9168C58.6106 70.9168 60.7708 70.7326 61.6554 70.9168Z" fill="black"/>
<path d="M33.2109 71.8076H42.3952C42.7491 71.8076 42.7494 72.8761 42.3952 72.8761H33.4784L33.2109 71.8076Z" fill="black"/>
<path d="M74.7447 71.1162C75.0228 72.6759 74.0643 74.4177 72.4547 74.7547C71.8095 74.8899 71.0967 74.9554 71.0188 74.1239C71.951 73.964 73.1158 73.5632 73.5533 72.6469C73.8423 72.0415 73.7524 70.6038 74.7447 71.1162Z" fill="black"/>
<path d="M70.6637 70.9172C71.2997 70.4721 72.0592 72.6949 71.462 72.8739C70.703 73.1015 70.3821 71.1142 70.6637 70.9172Z" fill="black"/>
<path d="M72.7855 70.9343C72.9601 71.0522 73.2584 72.7455 72.5361 72.6974C71.8542 72.3053 71.7486 70.2343 72.7855 70.9343Z" fill="black"/>
<path d="M93.845 57.3838C96.1689 55.028 97.8989 51.9021 100.092 49.4649C100.334 49.1962 100.897 48.546 101.146 48.3807C102.374 47.5651 103.462 48.4972 102.734 49.7886L96.1605 58.5384C97.9649 62.013 100.759 65.3347 102.438 68.8363C102.62 69.214 103.155 70.3033 103.124 70.6424C103.046 71.4804 101.51 71.9371 101.061 71.1012L94.5555 60.7672C93.0727 61.79 93.7923 64.3624 93.6741 66.0278C93.6329 66.6092 93.5559 68.0462 93.0071 68.2094C89.9722 69.1118 91.5659 63.5417 91.1626 61.9173C91.7989 57.9377 90.9812 53.0378 91.5438 49.1204C91.8185 47.2074 93.845 48.0587 93.845 48.5692V57.3838Z" fill="black"/>
<path d="M42.6218 52.4386C42.8496 52.9552 42.9805 53.5177 43.0256 54.083C43.2591 57.0062 42.952 60.3648 43.0119 63.3566C43.0382 64.6705 43.9054 66.9001 42.0383 67.3433L41.092 66.6984L40.7029 59.1656C40.2536 60.2735 39.8034 63.492 39.0097 64.1535C37.0056 65.8236 36.8061 60.6057 35.8876 59.8769C35.7711 61.7274 35.8342 63.6491 35.7149 65.4936C35.6493 66.5085 35.4864 68.4738 33.9683 67.7599C32.9028 67.2587 33.5547 65.2961 33.5748 64.425C33.6494 61.1971 33.571 57.4438 33.9243 54.2677C34.0915 52.7646 35.1344 52.285 36.1426 53.4767L38.5589 59.3415C38.8211 57.9631 39.2842 56.603 39.7608 55.2876C40.2675 53.8892 40.6205 51.4099 42.6218 52.4386Z" fill="black"/>
<path d="M48.511 44.4369C49.3522 44.4122 51.1689 44.0958 51.3725 45.2296C51.4929 45.8998 51.009 46.4855 50.38 46.6593C46.1341 47.2016 41.8531 47.4731 37.6023 47.9681C31.3095 48.701 23.9606 50.2475 17.7763 50.4446C15.7202 50.5102 15.5827 48.8974 17.2938 48.168C27.5395 46.9862 38.2027 44.7396 48.511 44.4369Z" fill="black"/>
<path d="M72.6656 45.2324C72.2933 44.8593 72.3798 43.7706 72.8068 43.4102C73.2767 43.0138 77.477 42.6852 78.4208 42.6053C85.503 42.0053 92.9125 41.91 99.9995 42.2455C101.276 42.306 106.962 42.3455 107.589 43.213C107.712 43.3835 107.787 43.5457 107.773 43.7614C107.771 44.2864 107.298 44.7408 106.784 44.7496C98.0278 44.563 89.2981 44.4487 80.5609 44.9203C79.2984 44.9884 73.2888 45.8568 72.6656 45.2324Z" fill="black"/>
<path d="M27.4574 51.5494C29.7672 51.1597 31.9599 52.2339 31.9598 54.8015C31.9598 56.0334 30.8784 58.5029 29.4885 57.085C29.5811 55.7596 30.6509 53.5131 28.4861 53.4509C27.1596 53.4129 26.5258 54.3908 26.6509 55.6402C26.9925 59.0498 32.818 60.1448 32.0972 64.9097C31.321 70.0405 23.2029 69.3462 24.1584 63.7473C24.4082 62.2833 26.2802 60.3492 27.2977 62.1354C27.3358 62.6103 25.6893 63.244 26.1622 65.0465C26.635 66.8486 29.5796 66.7841 29.9595 64.9112C30.5557 61.9721 26.2266 60.1973 25.0972 57.7392C24.0623 55.4868 24.6098 52.0298 27.4574 51.5494Z" fill="black"/>
<path d="M73.6922 50.2622C74.9305 50.497 78.6867 49.5334 79.4817 50.4451C79.7882 50.7967 79.8642 51.4938 79.5346 51.8218C78.9157 52.4378 74.7627 52.3068 73.6922 52.397L73.3318 66.3721C73.1422 67.081 72.5086 67.3077 71.8261 67.1762C70.4518 66.9115 71.1851 64.2799 71.2038 63.3568C71.2765 59.763 71.2845 56.1666 71.3745 52.5753C70.1362 52.6368 68.394 52.975 67.1889 52.749C66.4425 52.6091 66.3202 51.5864 66.8168 51.1407C67.4714 50.5531 70.5564 50.6379 71.5541 50.4401C71.1357 48.3971 74.0614 48.1579 73.6922 50.2622Z" fill="black"/>
<path d="M62.6363 64.1508H65.9355C67.0113 64.1508 67.0029 65.9972 66.2187 66.2095C65.6707 66.3579 61.0379 66.3762 60.6738 66.1995C60.5244 66.127 60.4007 65.9658 60.3538 65.8066C60.3376 63.4471 60.253 61.0719 60.3106 58.7122C60.35 57.0957 60.3282 54.7239 60.4964 53.1993C60.6946 51.4016 62.4816 51.4119 62.6445 52.6569C62.9639 55.0969 62.6817 59.309 62.6444 61.9319C62.634 62.6669 62.346 63.3201 62.6363 64.1508Z" fill="black"/>
<path d="M55.6812 64.3286C56.5752 64.363 57.3023 64.0261 58.2252 64.1939C59.695 64.4611 59.838 66.0612 58.2495 66.2699C57.4341 66.377 55.5413 66.4471 54.6998 66.4297C53.3858 66.4026 53.384 65.5768 53.3545 64.4259C53.3356 63.6881 53.54 63.0962 53.5485 62.4661C53.5725 60.6997 53.2388 53.8436 53.8137 52.7589C54.2895 51.8611 55.6812 52.4398 55.6812 52.8428V64.3286Z" fill="black"/>
<path d="M86.1755 65.2196C86.908 65.2365 89.4924 65.0708 89.8333 65.7505C90.0324 66.3615 90.0586 67.207 89.2923 67.3506C88.7157 67.4585 85.4202 67.4588 84.8435 67.351C84.5416 67.2945 84.1593 66.9908 84.0741 66.6947C83.8829 66.0295 84.0105 63.6699 84.0291 62.8074C84.0884 60.0495 84.4368 57.2364 84.4034 54.4556C84.5945 53.2903 85.7862 53.0777 86.4398 54.0041L86.1755 65.2196Z" fill="black"/>
<path d="M57.86 69.5258C58.2903 69.2124 61.926 69.0575 61.7422 69.9322C61.6128 70.5481 58.8302 70.4798 58.2725 70.3784C57.799 70.2923 57.4806 69.8022 57.86 69.5258Z" fill="black"/>
<path d="M51.6686 70.3828C51.211 70.3061 51.1118 69.9428 51.2481 69.5164C52.4527 69.0472 53.7274 69.4421 54.9481 69.51L54.9678 70.3828C53.9591 70.2656 52.6286 70.5436 51.6686 70.3828Z" fill="black"/>
<path d="M81.7643 61.2568C81.9556 61.4442 82.5214 61.2686 82.6156 61.9357C82.717 62.6533 82.1204 62.7312 82.0726 63.1731C81.9872 63.9636 83.24 66.5043 82.3599 67.1946C80.6507 68.5353 80.2156 64.2432 79.9555 63.3633L78.013 63.4782C77.599 64.4839 77.5312 67.2843 76.2388 67.5028C74.3236 67.8265 75.9814 64.2902 75.8148 63.7314C75.6855 63.2979 74.019 62.8485 76.1947 61.8888C76.9012 59.6772 76.9559 56.536 77.7992 54.4503C78.3324 53.1315 79.5473 53.169 80.2513 54.3078C80.8012 55.232 81.3979 60.8978 81.7643 61.2568ZM79.5772 61.2988C79.4495 60.6456 79.346 59.9468 79.1671 59.3063C79.1159 59.1233 79.1228 58.7676 78.8666 58.8095L78.5091 61.4789L79.5772 61.2988Z" fill="black"/>
<path d="M62.9929 41.6243C63.0442 41.4413 63.5099 41.1012 63.7563 41.2077C63.9018 41.2563 64.0917 41.294 64.1979 41.4018C64.8227 42.0363 64.0543 47.628 64.1527 48.8368C63.9514 49.2486 63.2332 49.3504 62.9009 49.0158L61.2095 45.4529V48.9253C61.2095 49.2243 60.3102 49.5475 59.9485 49.2933C59.4952 48.9747 60.1367 42.7106 60.0412 41.7049C60.5117 41.281 61.01 41.6498 61.2865 42.0815L62.9929 45.809C63.1911 44.7094 62.7253 42.5785 62.9929 41.6243Z" fill="black"/>
<path d="M58.4128 45.9338C58.5293 46.1211 59.0584 46.0769 58.8959 46.771C58.8294 46.8917 58.5416 46.8706 58.526 46.9876C58.4234 47.7608 59.6275 49.3443 58.234 49.6985C57.3712 49.7719 57.333 47.2705 56.9981 47.2212L56.072 47.4465C55.8235 48.3548 56.0337 50.2182 54.5983 49.8284C54.1212 49.2965 54.6605 48.5176 54.6132 48.0366C54.571 47.6062 53.9482 47.4505 54.086 46.9881C54.1697 46.7076 54.7816 46.6564 54.929 46.2152C55.2477 45.261 55.3092 42.3485 55.9437 41.7085C56.2684 41.3809 57.1581 41.4258 57.4484 41.8179C58.0564 42.6393 57.8744 45.0681 58.4128 45.9338Z" fill="black"/>
<path d="M65.806 42.9958C65.7079 42.8368 64.7661 42.5948 65.5699 41.8815C66.3885 41.155 68.3181 41.6377 69.1441 42.2489C71.3555 43.8854 70.2324 47.4735 68.0439 48.6266C67.4599 48.9343 66.5091 49.3212 65.8953 49.0596C64.7653 48.5779 65.7604 48.0648 65.8543 47.3307C65.9139 46.8647 65.9198 43.1803 65.806 42.9958ZM67.0947 47.5897C69.4453 47.0869 70.0467 42.798 67.0947 42.7817V47.5897Z" fill="black"/>
<path d="M57.1078 11.4406L73.1567 10.1926C73.3185 8.09897 73.3023 5.96252 73.5158 3.87355C73.6025 3.02551 73.771 0.772688 74.4107 0.315158C75.289 -0.313017 76.9102 0.0039057 77.0709 1.21187L76.7239 10.0169C77.3696 10.1312 77.9803 9.85233 78.5898 9.83057C82.7809 9.68103 87.2522 9.48581 91.4448 9.6525C92.5922 9.69812 95.045 9.76392 96.0297 10.0604C97.1365 10.3937 97.174 11.6921 96.3313 12.2315C95.238 12.9314 89.3378 12.7788 87.685 12.8578C85.8015 12.9478 83.8652 13.1242 81.9838 13.2195C80.1556 13.3121 78.213 13.1783 76.4459 13.5662C76.255 14.9566 76.4278 16.3738 76.3754 17.7695C76.1523 23.7191 76.1873 29.809 75.8313 35.7459C75.8031 36.2155 75.6645 37.7969 75.5359 38.1091C75.4187 38.3935 74.5668 38.7965 74.2759 38.828C73.2357 38.9405 72.5513 37.923 72.4449 36.994C72.0904 33.8997 72.5708 30.4764 72.6304 27.3855C72.7192 22.7715 72.7449 18.1737 72.9787 13.5783L57.1156 14.8324C56.7776 16.6135 56.986 18.4449 56.9276 20.2534C56.8501 22.6581 56.6479 25.1425 56.5654 27.5489C56.4664 30.4381 56.8433 35.6049 56.1728 38.1974C55.7075 39.9967 53.2412 39.8895 53.0019 37.8887C52.66 35.0312 53.1344 31.8427 53.1918 28.9882C53.2337 26.9007 53.3034 24.8222 53.3701 22.7556C53.4515 20.2327 53.4774 17.701 53.5416 15.1793L43.8311 15.8836C41.9249 15.3179 41.6806 13.3966 43.8644 12.9077L53.4227 11.9457C54.5207 11.579 52.8618 7.57996 55.9381 8.06728C56.24 8.11511 57.1078 8.64557 57.1078 8.85852V11.4406Z" fill="black"/>
<path d="M8.02608 10.5996C15.0079 9.75909 18.749 15.7578 16.2265 21.9933C15.6438 23.4338 13.9985 25.8709 12.1773 24.6959C10.7888 23.8 12.1792 22.5436 12.5561 21.7116C13.1312 20.4421 13.3726 19.1548 13.2445 17.7547C12.7725 12.5965 4.67762 13.2439 4.66621 19.1868C4.65295 26.1019 15.9806 28.9022 16.6229 37.709C17.5471 50.3799 -0.895297 50.5965 0.0339892 38.4121C0.22281 35.9363 1.8467 32.4551 4.60446 32.1116C6.36519 31.8923 7.2609 32.988 6.09853 34.4954C4.9507 35.984 3.90312 36.5569 3.77895 38.7682C3.39626 45.5837 13.1765 45.1498 12.8829 38.4262C12.5982 31.9071 1.67596 28.5268 0.954973 20.41C0.551272 15.8652 3.22212 11.1779 8.02608 10.5996Z" fill="black"/>
<path d="M106.923 40.2296C106.476 39.8069 105.984 38.571 105.71 37.9682C104.169 34.5735 103.03 30.9462 101.69 27.4688C101.425 27.5491 101.355 28.3899 101.337 28.6276C101.149 31.1845 101.233 33.9175 100.977 36.4586C100.842 37.7882 100.907 39.7813 99.1022 39.7611C96.5579 39.7325 97.5438 36.0543 97.5974 34.5089C97.7702 29.5256 97.6066 23.3411 98.3232 18.4948C98.5849 16.725 100.066 16.1687 101.413 17.3285L107.04 30.8502C107.389 25.9013 107.624 20.9206 108.113 15.9829C108.396 13.1218 108.685 9.72123 109.211 6.92955C109.333 6.28506 109.43 5.29743 110.199 5.06776C112.53 4.37204 112.095 7.79727 112.043 9.22248C111.885 13.481 111.249 17.9367 110.967 22.2164C110.627 27.366 110.662 32.9901 110.071 38.0603C110.018 38.516 109.915 39.3234 109.777 39.7256C109.355 40.9576 107.82 41.0778 106.923 40.2296Z" fill="black"/>
<path d="M113.704 33.7637C114.538 32.9292 116.346 32.0834 117.269 33.2077C117.699 34.1953 116.03 35.5651 115.623 36.6593C113.359 42.7528 122.819 44.2343 122.74 38.2495C122.658 32.0273 112.344 30.3458 113.099 21.6737C113.85 13.0429 127.917 14.4361 125.437 23.6655C125.076 25.0094 123.863 27.2661 122.149 26.3599C120.887 25.6923 122.025 24.5137 122.293 23.5531C122.449 22.9932 122.591 22.287 122.542 21.7048C122.233 18.0058 115.865 18.4153 116.315 23.1053C116.748 27.6164 125.2 30.4415 125.926 36.6575C126.581 42.2599 122.823 46.6571 117.027 45.1871C112.273 43.981 110.344 37.1259 113.704 33.7637Z" fill="black"/>
<path d="M34.2275 3.64222C35.4721 3.26895 36.2819 3.89808 36.4206 5.11887C37.1095 11.1823 35.9116 18.5159 36.4134 24.7142L36.8031 38.5716L37.1409 38.7887C41.3501 38.1878 45.5937 37.8942 49.837 37.6493C51.73 37.9581 51.8693 39.8481 50.3113 40.7139L35.2565 42.6083C33.3212 42.3758 33.3128 40.5171 33.2125 38.951C32.6433 30.0665 32.7936 20.0986 33.0397 11.1806C33.0823 9.63764 32.7443 5.672 33.3091 4.5047C33.3941 4.329 34.0437 3.69736 34.2275 3.64222Z" fill="black"/>
<path d="M89.3399 20.2089C99.0509 18.5639 97.4436 38.6795 89.4682 38.87C81.5384 39.0593 82.8512 21.3081 89.3399 20.2089ZM88.3714 34.8914C89.6824 36.0842 91.0718 34.4916 91.6152 33.3435C92.5986 31.266 92.8572 28.11 92.3031 25.8909C91.4537 22.4887 89.5017 22.6139 88.231 25.6905C87.3885 27.7302 86.5866 33.2676 88.3714 34.8914Z" fill="black"/>
<path d="M48.5044 18.5972C49.9252 18.3495 50.6093 19.5497 50.6877 20.7936C50.7312 21.4839 50.5084 21.9734 50.5022 22.563C50.4649 26.0941 50.627 34.9936 45.9195 35.7945C41.3002 36.5803 39.6885 31.3583 39.4454 27.7418C39.3314 26.0464 39.2467 21.6131 39.6782 20.1244C40.1873 18.3678 42.324 18.3668 42.7612 19.801C43.1739 21.155 42.7386 24.8042 42.8337 26.4954C42.9037 27.7406 43.3639 32.6463 45.2424 32.4587C46.1445 32.3686 46.6247 29.7278 46.7403 28.957C46.9729 27.4074 47.0344 25.5887 47.1284 24.0023C47.2159 22.528 46.5858 18.9315 48.5044 18.5972Z" fill="black"/>
<path d="M96.8239 16.3763C96.3908 16.8991 93.7623 17.4573 92.9905 17.621C89.7351 18.3119 84.3308 19.2966 81.0907 19.4524C78.5999 19.5723 77.9331 17.2223 80.2529 16.4769C83.2437 15.5159 89.0877 14.9123 92.3302 14.6467C93.3216 14.5655 95.6509 14.2832 96.4483 14.6285C97.0978 14.9098 97.275 15.8318 96.8239 16.3763Z" fill="black"/>
<path d="M80.4273 21.6259C82.9467 21.2551 82.0906 24.6308 82.0674 25.9465C82.0052 29.467 82.1012 33.5051 81.6983 36.9747C81.6306 37.5586 81.4453 38.4077 80.8372 38.6066C77.4221 39.7234 78.643 34.3212 78.6937 32.5499C78.7794 29.5547 78.6558 26.0623 79.0592 23.1208C79.1666 22.3372 79.6094 21.7463 80.4273 21.6259Z" fill="black"/>
<path d="M30.1945 34.2593C29.9971 34.6051 31.8765 40.7202 31.5224 42.0733C31.2025 43.2951 29.4258 43.6914 28.6883 42.7397C27.9445 41.7799 26.9484 35.0233 26.53 34.979C25.8357 35.3866 23.4349 35.3908 23.0569 35.9372C22.6944 36.4612 22.1996 41.2374 21.8885 42.4277C21.3374 44.5366 20.2304 45.7638 18.4466 43.7247L19.2706 36.3992C18.2935 36.1185 17.664 35.6344 17.875 34.5082C18.0692 33.4713 19.7815 33.3012 19.9807 32.8655C20.6043 29.4562 21.118 26.0097 21.8494 22.6224C22.0741 21.5817 22.5687 18.6592 23.0437 17.9386C23.7579 16.855 25.419 16.8847 26.3353 17.683C27.9253 21.8245 28.4454 26.3693 29.5539 30.6739C29.8901 31.4697 31.8301 31.3096 31.5752 32.8527C31.403 33.8954 30.293 34.0867 30.1945 34.2593ZM26.0783 31.5602L24.6527 26.2221L23.5808 32.0957L26.0783 31.5602Z" fill="black"/>
<path d="M68.7344 28.4987C68.9632 28.8064 70.4857 28.5441 70.6575 29.8868C70.8439 31.3433 69.4713 31.3898 69.4037 31.6879C69.2102 32.5417 70.4397 35.9572 70.4871 37.181C70.5525 38.8684 68.4979 39.7549 67.6259 38.6002C66.7505 37.4408 66.6362 33.8533 66.0453 32.3782C65.799 32.0163 63.048 32.7775 62.4988 32.8498C62.1173 34.3451 62.0178 35.9134 61.6237 37.4073C61.3446 38.4652 61.1992 39.5251 59.8684 39.589C56.8418 39.7341 59.4074 34.5989 59.0808 33.2821C59.0556 33.1805 57.7989 32.8878 58.026 31.6944C58.211 30.7219 59.4842 30.6375 59.739 30.0051C60.6758 26.1977 61.2268 22.1657 62.1884 18.3831C62.4662 17.2901 62.5679 16.1435 63.8787 15.7985C66.4518 15.1211 66.5947 18.0347 67.0079 19.8073C67.6771 22.6788 68.1053 25.6192 68.7344 28.4987ZM65.301 29.2385C65.4063 28.2583 65.0386 27.3213 64.8995 26.3643L64.2431 24.0843L63.3514 29.6036L65.301 29.2385Z" fill="black"/>
<path d="M51.0959 60.5399C51.183 60.6466 51.4474 60.6976 51.5809 60.8495C52.27 61.6341 51.4149 61.9205 51.3922 62.6281C51.3663 63.4317 52.3604 65.6938 51.9054 66.4353C49.5538 67.923 49.8399 64.2299 49.2801 62.8273L47.2041 63.0754C46.633 64.0762 46.7578 67.0909 45.3869 67.324C43.5234 67.6408 45.1401 64.0941 44.9922 63.3834C44.9532 63.1959 44.2352 63.1611 44.3031 62.3173C44.3531 61.6971 44.8648 61.8319 45.1533 61.5656C45.6613 61.0969 46.3943 56.3465 46.6728 55.244C47.0618 53.7043 47.2733 51.686 49.3442 53.1159C50.1814 54.5159 50.3112 59.578 51.0959 60.5399ZM48.3687 58.0953C47.9087 58.0455 48.0844 58.0943 48.0074 58.3557C47.7608 59.1938 47.7746 60.1163 47.478 60.9432L48.7274 60.7669L48.3687 58.0953Z" fill="black"/>
</g>
<defs>
<clipPath id="clip0_460_14093">
<rect width="126" height="75" fill="white"/>
</clipPath>
</defs>
</svg>
