<svg width="120" height="89" viewBox="0 0 120 89" fill="none" xmlns="http://www.w3.org/2000/svg">
<g clip-path="url(#clip0_462_14174)">
<path d="M105.475 62.1437C105.558 62.6622 105.369 62.4466 105.056 62.532C104.38 62.7173 103.633 62.774 102.939 62.8714L105.112 63.2307C96.5273 64.4061 87.8865 65.2172 79.3185 66.5292C59.3512 69.5867 39.7365 74.4402 20.3916 80.1107C20.1393 79.9821 20.6305 79.7619 20.7173 79.7108C21.9588 78.9802 23.456 78.3642 24.8286 77.9291C24.8709 77.591 24.4647 77.7949 24.2768 77.8298C22.9387 78.078 21.617 78.5042 20.3011 78.8386C20.2266 78.4725 20.4682 78.4045 20.7161 78.258C21.5748 77.7507 23.1256 77.3614 24.104 77.022C24.1501 76.7114 23.674 76.829 23.475 76.8453C22.4747 76.927 21.5016 77.422 20.4814 77.3851L23.2864 76.1135C44.0073 69.852 65.7519 65.3334 87.2853 62.7112C92.8679 62.0314 100.036 61.0304 105.568 61.2364C105.787 61.2445 106.242 61.1001 106.199 61.4155L102.213 62.1437H105.475Z" fill="black"/>
<path d="M118.16 37.2834C118.646 37.7098 116.301 38.3639 116.125 38.4192C112.7 39.4961 107.329 40.4107 103.745 40.5553C103.311 40.5728 102.979 40.475 102.577 40.3655C102.503 39.907 102.948 39.8214 103.251 39.6827C104.864 38.9451 107.5 38.4153 109.277 38.0947C112.198 37.5676 115.191 37.2326 118.16 37.2834Z" fill="black"/>
<path d="M115.261 43.6352C115.33 44.0258 115.087 44.0666 114.806 44.1763C112.791 44.9632 105.23 45.626 103.208 45.0876C102.974 45.0252 102.74 45.1028 102.577 44.8108C102.5 44.4594 103.028 44.3139 103.258 44.2266C104.238 43.8544 106.457 43.5689 107.561 43.4539C110.104 43.189 112.764 43.0853 115.261 43.6352Z" fill="black"/>
<path d="M101.67 49.4391C101.61 48.8659 102.31 48.858 102.718 48.7665C104.761 48.3084 109.256 48.5877 111.314 49.1294C111.628 49.2121 111.964 49.2439 112.177 49.5316C111.933 49.8252 111.523 49.9087 111.167 49.968C108.156 50.4691 104.634 50.0346 101.67 49.4391Z" fill="black"/>
<path d="M23.7435 13.5107C23.7253 13.7248 23.8385 13.8998 23.6302 14.0678C23.1842 14.4274 20.9972 14.9013 20.3055 15.0586L2.54004 18.4077L5.84403 17.0914C11.6798 15.4147 17.6457 13.8403 23.7435 13.5107Z" fill="black"/>
<path d="M109.643 0.0835795L88.9845 2.98432C88.9672 2.69184 88.9206 2.56107 89.1702 2.35535C89.534 2.05557 92.4314 1.53849 93.1184 1.40918C98.4367 0.408088 104.246 -0.239028 109.643 0.0835795Z" fill="black"/>
<path d="M36.7907 9.51956C36.5144 9.30233 33.0094 10.9565 33.5503 9.27224C33.692 8.83109 36.1847 8.31819 36.7215 8.27051C37.3248 8.2169 38.1126 8.0736 38.3956 8.74064C38.5961 9.48939 37.5998 10.6634 37.1562 11.2423L38.8878 12.422C38.6679 14.783 36.7929 12.4697 36.1937 12.6221C35.7376 12.9709 34.3005 14.5865 33.7031 14.1547C33.0004 13.1276 34.6015 12.7883 34.9979 12.1521C35.216 11.8021 34.9523 11.5594 35.0611 11.3341C35.2356 10.9727 36.7348 10.2912 36.7907 9.51956Z" fill="black"/>
<path d="M42.4097 8.06687C43.0425 8.08727 43.5836 7.6758 44.1785 7.56593C45.7294 7.27955 45.0898 8.77227 43.846 8.89646C43.5657 9.87745 45.9384 12.4399 44.2853 12.7537C43.267 12.9471 42.725 10.0754 42.4263 9.41048C42.3297 9.19532 42.5122 9.08209 42.0473 9.15474C42.0154 10.544 41.4186 11.8502 40.9323 13.1189L39.6899 12.9636L41.1744 7.19226L42.2333 7.05371L42.4097 8.06687Z" fill="black"/>
<path d="M27.5478 15.1429C27.3653 14.0811 28.4909 13.9446 29.1636 13.4041C30.0305 12.7077 30.6098 11.8354 30.9916 10.7904L27.1182 11.5001C26.732 11.3893 26.7459 10.7123 26.906 10.4168C27.1803 10.0075 31.8217 9.10245 32.2713 9.41653C32.7374 9.7422 32.1147 11.6756 31.9021 12.154C31.2829 13.5472 29.2111 15.4351 27.5478 15.1429Z" fill="black"/>
<path d="M61.7533 4.11872C62.4843 5.7285 60.8143 7.28341 59.4578 7.90911L59.7451 9.80213L58.8385 10.2278C58.3963 10.1022 57.938 7.99515 57.9885 7.46883C58.0442 7.24419 60.4359 6.1677 60.3492 5.34542L57.1731 6.00326C56.8254 5.9534 56.5821 5.27388 56.7498 5.00342C56.9212 4.72705 61.1566 3.51467 61.7533 4.11872Z" fill="black"/>
<path d="M69.0483 8.2474C68.8002 7.0444 69.7644 7.11543 70.503 6.52789C71.1133 6.04248 71.6596 5.34356 71.9485 4.62001L68.7688 5.08803C66.8 3.55152 72.8773 3.18588 73.2275 3.42761C73.8181 5.56314 71.2277 8.35975 69.0483 8.2474Z" fill="black"/>
<path d="M85.7037 0.643406C86.5072 1.53868 82.6533 6.9979 80.8436 6.23647C80.406 5.21986 81.3837 5.15738 82.0027 4.61418C82.4135 4.25373 83.0352 3.6716 83.3616 3.25281C84.0726 2.34036 84.3034 1.33995 84.9236 0.474609L85.7037 0.643406Z" fill="black"/>
<path d="M75.23 7.32288C75.1159 7.24287 74.9985 6.6483 75.109 6.43565C75.2914 6.08432 76.6362 5.4759 77.0257 5.02408C77.7613 4.17063 78.0486 2.80056 78.3136 1.73828L79.2072 1.79664C79.6618 3.41672 78.268 5.8609 76.9021 6.76602C76.5991 6.96682 75.5213 7.5273 75.23 7.32288Z" fill="black"/>
<path d="M56.5213 6.45672C57.1148 7.9374 53.539 12.0898 52.367 11.2533C51.469 10.6123 53.2315 9.90935 53.6289 9.59259C54.7437 8.70402 55.0472 7.64778 55.4453 6.32715L56.5213 6.45672Z" fill="black"/>
<path d="M50.7457 8.24771L50.6409 9.17657L45.489 10.0627C45.4601 9.55099 45.4224 9.03986 45.9851 8.83489C46.4123 8.67929 50.5797 8.07441 50.7457 8.24771Z" fill="black"/>
<path d="M66.655 5.20786C67.2914 5.1423 67.9822 5.29694 67.5135 6.07503C67.3643 6.32279 63.7899 7.11031 63.2845 7.12057C62.6157 7.13415 62.4833 6.54551 62.8838 6.15651C63.1896 5.85939 66.0679 5.26833 66.655 5.20786Z" fill="black"/>
<path d="M80.5257 1.4089C81.3865 0.41209 83.5331 2.08013 82.2756 2.72192C81.814 2.9575 80.8707 2.22667 80.3602 2.08542C80.21 1.87386 80.3861 1.57056 80.5257 1.4089Z" fill="black"/>
<path d="M74.9361 2.12923C75.5189 2.08036 76.9884 3.42414 75.9344 3.99317C75.3728 4.28509 74.5111 3.26944 74.1279 2.89462L74.9361 2.12923Z" fill="black"/>
<path d="M52.9123 7.16578L53.0919 8.41882L52.1942 8.53306C51.5067 7.58828 51.7211 7.08978 52.9123 7.16578Z" fill="black"/>
<path d="M53.7766 6.46057C55.0558 6.27266 54.0345 9.31736 53.1252 6.88308C53.1356 6.74524 53.616 6.48416 53.7766 6.46057Z" fill="black"/>
<path d="M58.3542 62.3267L57.9045 63.5911L57.0898 63.0512L56.8113 63.958L55.9119 63.5934L55.8189 64.1403L55.1727 63.9709L49.2971 53.6157L48.7489 65.2281C48.1888 65.3369 48.1746 65.0667 47.9369 64.685L47.2139 65.7318C46.4928 65.682 46.828 64.9303 46.3977 64.6855C46.4165 65.049 46.1093 66.0613 45.7587 66.1352C45.2187 66.2491 45.4871 65.2589 45.0383 65.409C44.8914 65.4581 44.9543 66.4493 44.0405 66.1368L45.129 43.6349L46.2127 44.5413C46.1498 43.9953 45.7409 43.3485 46.3106 42.9099C46.9873 42.7949 47.0088 43.5917 47.4812 43.8156C47.1406 42.0006 47.7028 41.9356 48.7498 43.2711L48.836 42.1759C49.0281 41.8675 49.3874 42.0742 49.6036 42.2401L55.0927 53.0696L55.9078 41.0913C56.1154 40.7684 56.3713 40.9248 56.5543 41.1742C56.8435 41.5685 56.5438 42.0913 56.9047 42.1813C56.8017 41.5444 57.5182 39.5266 58.0824 40.7334C58.2622 41.118 57.9987 41.729 58.3547 41.8185C58.454 41.0127 58.3567 39.9682 59.4421 40.1858L59.8046 41.2742C59.5656 40.788 60.2203 39.5433 60.6274 40.1807L59.6252 62.5976C59.4745 63.4175 58.4138 63.0996 58.3542 62.3267Z" fill="black"/>
<path d="M87.3537 35.832C87.9612 36.3235 85.59 36.1962 85.7227 36.5548C95.3738 34.7788 92.7137 50.1987 89.9206 55.0063C86.2957 61.2457 78.4532 61.5777 77.0693 53.4775C75.9823 47.1148 78.641 34.3813 87.3537 35.832ZM84.4056 41.2291C84.2584 41.3581 83.9515 41.2807 83.6405 41.6403C81.7713 43.801 81.3122 50.6805 82.1076 53.3322C82.8673 55.865 85.0907 55.1013 86.0629 53.1396C87.2925 50.6587 88.37 43.1269 86.7829 40.8479C86.1444 39.931 86.0736 40.3843 85.4378 40.5388C85.1999 40.5966 84.7969 40.4789 84.6572 40.5719C84.5511 40.6425 84.5881 41.0692 84.4056 41.2291Z" fill="black"/>
<path d="M68.6865 47.8076C68.9382 48.0586 73.4133 46.6217 74.3665 46.9283C74.5436 46.9853 74.7089 47.149 74.6662 47.3514L73.5777 48.0798L74.6679 48.353C74.7485 48.867 74.4465 49.1945 73.9425 49.2617C74.1688 49.677 74.6686 49.5138 74.4759 50.1543L73.2185 50.5319C73.354 50.8813 73.7493 50.5942 73.5723 51.2451L68.5875 52.6988L67.9608 61.6C67.3044 61.7851 67.3163 61.0888 66.876 60.8733L66.7047 61.8558L66.2553 61.9474L65.6075 60.8741C65.6404 61.4183 65.5929 61.9575 65.1501 62.3244L64.4277 61.5973C64.2872 61.6014 64.0637 63.0528 63.3361 62.3291L63.6131 53.6136L62.3445 53.6136C62.1588 53.0253 63.4364 52.7301 63.4328 52.6165L62.3443 52.5249C62.0357 51.8112 63.2528 51.6741 63.2515 51.5277C61.9969 51.4059 62.1076 50.6627 63.2486 50.5276C63.2676 50.1839 62.4054 50.4121 62.5255 49.8969C62.61 49.5344 63.8542 49.479 63.9399 48.9524L64.1556 44.5406L62.8003 44.7233L62.6134 44.3594L63.9737 43.4542L62.4487 43.4551L62.3398 42.9983L63.9733 42.3613C63.9155 41.9495 63.2422 42.3964 62.975 42.3703C61.2544 42.2026 64.1623 41.1282 64.1577 41.0026L62.9807 40.9113C62.347 40.4581 64.2817 40.0571 64.3793 40.0015C64.5888 39.8822 64.5965 39.5531 64.8163 39.4806C65.1532 39.3694 65.5121 39.5976 65.8129 39.543C69.0227 38.9608 72.7593 37.5781 76.036 37.4571C76.4564 37.4416 76.882 37.468 76.8412 38.0062L75.574 38.5509C77.8346 38.2792 76.7454 39.5336 75.3929 39.6436L76.8407 39.824C77.1788 40.1211 75.7059 40.9778 75.3932 40.9141C75.4727 41.3047 76.1473 40.9596 76.4851 41.1782C76.7533 41.3517 76.7206 41.5298 76.4735 41.7228C76.1308 41.9904 74.488 42.32 73.9445 42.4568C72.2154 42.8921 70.2748 43.0189 68.6865 43.7246V47.8076Z" fill="black"/>
<path d="M41.8642 43.4531L40.7472 66.5589C40.2026 67.3868 39.9353 66.4092 39.511 66.1358L39.4301 67.0544L38.7109 67.2353L38.2429 66.1372L37.8757 67.5871L37.3225 67.5087L37.1513 66.8619C35.1672 69.162 36.0332 64.9348 36.0734 63.875C36.3138 57.5394 36.4237 51.1261 37.1415 44.8293C37.1441 44.6535 37.5272 44.6899 37.605 44.724C38.0463 44.9175 37.6712 45.5991 38.0574 45.6289L38.3318 44.1788L38.8738 43.9934L39.5074 45.2662C39.3394 44.7132 39.8866 42.9769 40.502 43.8192C40.6968 44.0858 40.5502 44.8163 40.9572 44.9032C40.921 44.2597 40.9977 43.3322 41.8642 43.4531Z" fill="black"/>
<path d="M35.5221 79.7458L36.7947 79.4834L37.1539 79.6587L36.9451 86.8866L36.675 87.1439C36.1587 86.8515 36.2783 87.3401 36.1351 87.3725C35.0816 87.6114 34.2997 85.0157 33.7982 84.2847C33.2217 83.7763 33.7099 84.6763 33.7099 84.7361V87.4582C33.4446 87.7305 32.0789 88.162 32.0789 87.6396V81.4697C32.0789 80.7893 32.6009 79.9313 33.4042 80.1337C33.9256 80.265 34.9825 82.5955 35.162 83.1923C35.3533 83.2658 35.5221 82.595 35.5221 82.5585V79.7458Z" fill="black"/>
<path d="M84.4532 70.6729V77.8408C82.5795 79.4233 82.2406 76.8944 81.4606 75.5678C81.3226 75.3332 81.493 75.1106 81.0108 75.2105L81.1641 78.3575L80.9042 78.6371C80.1628 78.2165 80.3768 78.8591 79.9244 78.9313C79.7253 78.9631 79.5601 78.8361 79.5601 78.7482V71.7617L81.1941 71.4821L83.0033 74.6651V71.1265L84.4532 70.6729Z" fill="black"/>
<path d="M42.1664 79.4445C42.9826 80.2266 42.9933 82.0156 42.7212 83.0535C42.2422 84.8804 39.8983 87.1384 37.8977 86.6227L38.0717 81.115L37.5149 81.0156C37.5974 79.9194 37.6623 79.6575 38.7321 79.2393C39.8096 78.818 41.2396 78.5563 42.1664 79.4445ZM39.5101 84.8263C41.0344 85.0029 41.7582 80.8061 40.8458 80.4951L39.5084 80.4712C39.5404 81.9764 39.7341 83.3202 39.5101 84.8263Z" fill="black"/>
<path d="M50.2016 78.4753C50.3676 77.2804 50.6438 77.115 51.8411 76.7599C55.98 75.5323 55.8992 78.8565 53.467 80.9251C54.1123 81.4355 54.5785 82.4342 55.456 82.4695L55.0945 82.6506L55.4544 83.1029C53.8153 84.7244 53.3639 82.8469 52.1969 81.9232L52.1129 84.1103L50.7465 84.2818L50.7436 78.4745C50.541 78.5678 50.4057 78.5794 50.2016 78.4753C50.1447 78.8844 50.2451 79.3327 50.1581 79.7927C49.7644 81.8756 47.2612 82.6597 47.1469 83.1366L47.3006 85.1891L46.8414 85.0276C46.6758 85.5977 46.1837 85.3341 45.6709 85.371V79.8363C45.6709 79.7713 45.1019 78.8969 45.2099 78.657C45.5572 77.8856 47.7763 77.3708 48.5731 77.459C49.7562 77.5899 49.6957 78.2172 50.2016 78.4753ZM52.4031 77.9569C52.2227 78.0703 52.1588 79.8726 52.4706 79.9275C53.1581 80.0485 54.1407 78.2177 53.3454 77.959C53.1605 77.8988 52.5424 77.8692 52.4031 77.9569ZM47.1217 81.3778C47.937 81.5012 49.2419 79.5462 48.5799 79.1005L47.3217 79.0406L47.1217 81.3778Z" fill="black"/>
<path d="M76.4803 75.0273C76.6257 75.1832 78.4448 74.365 78.4686 74.9361C78.0637 75.1967 78.374 75.8262 78.1172 76.0209C77.7968 76.2638 76.9181 76.4647 76.4876 76.4875L76.481 78.1128L78.8344 77.5673L78.8448 78.7476C77.6883 79.0449 75.4406 80.4052 74.7578 79.0237C73.1025 81.2641 72.6833 79.3319 71.2255 78.1129L71.1359 80.2947L69.5937 80.6526L69.9566 75.0293L69.4093 74.9256C69.3217 73.6469 70.3364 73.1602 71.4948 73.0315C75.125 72.6281 74.5447 75.0334 72.8523 77.1115C73.1836 77.921 73.8367 78.5733 74.5775 79.0158C75.1383 78.9794 75.0929 74.9844 75.0351 74.3873C74.9599 73.6094 74.2289 73.289 75.1462 72.6941C75.6174 72.3885 77.8353 71.7942 78.4083 71.7706C79.2564 71.7358 78.9823 72.5325 78.8452 73.1194L76.5594 73.7471L76.4803 75.0273ZM72.2462 75.8704C72.549 75.5516 72.8759 74.8642 72.5952 74.4705L71.4042 74.3012L71.4059 76.2973C71.5133 76.418 72.1334 75.9892 72.2462 75.8704Z" fill="black"/>
<path d="M30.2226 81.0629L31.0763 84.8325L31.8967 85.0102L31.3548 85.1917L31.8992 85.3719L31.8963 85.7307L31.2426 86.1789L31.3532 88.2756L30.3515 88.2912L29.6287 86.4565C27.8978 86.5461 28.6683 87.8373 27.9975 88.6424C27.9197 88.7358 27.0179 89.0051 26.8241 88.9997C26.7271 88.8988 26.8895 87.1922 26.8141 86.9375C26.7717 86.7943 26.4561 86.8246 26.459 86.7358C26.4685 86.4442 27.1268 86.1456 27.2833 85.7419C27.61 84.8996 27.9744 81.5778 28.582 81.1779C28.7813 81.0467 30.021 80.729 30.2226 81.0629Z" fill="black"/>
<path d="M98.9321 70.4731L97.683 70.6739L97.3928 69.5728C94.2209 70.7623 98.1436 71.4849 98.7455 72.4214C100.249 74.7608 96.5871 77.1393 94.7915 75.8345C94.0205 75.2742 94.8905 73.7303 95.8639 73.9434L96.0366 74.5869C96.6913 74.8122 97.4803 74.6158 97.4985 73.8325C97.5287 72.5291 94.3512 72.8418 94.8211 70.4446C94.9628 69.7218 95.8844 68.6415 96.5896 68.3996C98.7387 67.6626 99.3964 68.2515 98.9321 70.4731Z" fill="black"/>
<path d="M69.0499 75.0269C68.7636 75.355 66.1348 74.9452 66.6938 76.8414L68.506 76.755L68.3322 77.839L66.7115 78.3122L66.6947 79.9272L69.23 79.3847L68.868 79.8375C68.8115 79.9498 69.4528 79.858 69.228 80.3789C69.1108 80.6503 65.6885 81.7444 65.0953 81.3467L65.2002 76.0119L64.6973 75.6627C65.2969 75.5391 64.9507 75.082 65.1485 74.6625C65.3394 74.2576 68.5459 73.4961 68.9532 73.5762C69.4333 73.6706 68.9727 74.1436 68.946 74.3858C68.928 74.5486 69.1244 74.9416 69.0499 75.0269Z" fill="black"/>
<path d="M94.2392 69.04L94.2418 69.649L93.8745 69.8557L94.1929 69.977L94.2394 70.4883L91.8724 70.9336L91.7029 72.3059L93.6982 72.0357C93.6058 73.4906 92.9881 73.5213 91.7207 73.7753L91.703 75.2084L93.9423 74.8686L94.2269 75.9113C93.2232 76.1397 91.2145 77.2003 90.2529 76.7497L89.9317 76.3677C89.9254 74.9809 90.565 72.6164 90.2491 71.3409C90.2342 71.2811 89.5668 71.0154 90.0017 70.3029C90.447 69.5734 93.3316 69.0852 94.2392 69.04Z" fill="black"/>
<path d="M59.5782 76.794C59.2434 77.0939 57.6375 77.0137 57.4738 77.5007L57.4513 78.6577L59.447 78.388L59.3676 79.568L57.4749 80.315L57.4513 81.5613L59.8065 81.1994L59.616 81.6382L59.9931 81.8313L59.9859 82.1942C59.8518 82.5303 56.392 83.4046 56.1748 83.28C56.0745 83.2225 55.9507 82.7898 55.6401 82.744C55.8884 82.474 55.9736 82.1986 56.0051 81.8373C56.0958 80.7958 56.086 79.0641 56.0113 78.0129C55.9681 77.4049 55.3891 77.2934 55.9226 76.491C56.3968 75.778 58.8206 75.483 59.692 75.2246L60.0013 75.6668C60.0097 75.8026 59.6382 76.7401 59.5782 76.794Z" fill="black"/>
<path d="M89.525 69.9499C89.4819 71.2647 89.9888 73.1459 88.0785 73.0326L88.0768 71.5812C87.5307 71.0377 86.7399 73.1035 86.6716 73.5298C86.3117 75.7783 86.9924 77.6579 88.7141 75.0287C89.143 74.9219 89.0828 75.5977 89.2118 75.7188C89.3678 75.8653 89.8217 75.5668 89.7061 76.0228C89.037 77.2903 87.2908 78.225 85.9531 77.4278C84.1836 76.3733 85.2589 71.1871 86.9216 70.332C87.6704 69.9468 88.711 69.7828 89.525 69.9499Z" fill="black"/>
<path d="M64.6363 75.3296C64.2343 76.0895 62.9597 76.2392 62.1716 76.3062L62.1626 77.7501L63.974 77.5687C64.1187 79.0801 63.3702 78.8605 62.2454 79.375L61.8937 82.1174L60.5323 82.4667C60.5596 81.2885 60.495 80.1009 60.5239 78.9215C60.5398 78.271 60.8275 77.632 60.7271 76.9198C60.6836 76.6114 59.9514 76.5748 60.6307 75.5799C61.1263 74.854 63.7351 74.6337 64.6054 74.3047L64.8095 74.679C64.7183 74.8848 64.7413 75.1312 64.6363 75.3296Z" fill="black"/>
<path d="M88.2608 10.7873C88.5673 10.7714 88.4446 10.2302 88.5763 9.92661C88.8724 9.2447 89.2733 9.43895 89.3544 10.1443C89.5208 11.5912 89.0635 13.883 88.9856 15.4175C88.7201 20.6512 88.6026 25.8987 88.1732 31.1172C87.5142 31.6963 87.4023 30.8222 86.9919 30.5692C87.3982 32.8698 85.8014 30.8351 85.7234 30.9312C86.1623 32.2381 85.6262 32.6188 84.6362 31.657L84.6337 32.3843L84.1236 32.3456L78.837 22.5836C78.7832 23.8309 78.7386 32.999 78.2887 33.2894C77.7989 33.6056 77.684 32.822 77.3874 32.7469L76.9351 33.8214L76.1188 32.9283L75.9176 33.9965L75.2359 33.99L74.8502 33.2912C74.8978 33.6196 74.5883 34.2806 74.2166 34.1965C73.5827 34.0531 74.0994 30.8869 74.1214 30.2941C74.3362 24.513 74.5311 18.7501 74.9328 12.9598C75.4696 12.4211 75.3771 13.2435 75.7525 13.3278C75.7411 12.6317 75.5382 11.463 76.4943 12.3157C76.7366 12.5319 76.7339 12.9414 77.0211 12.9649L77.0238 11.5149C77.8205 11.3795 77.9391 12.2718 78.471 12.6027L78.3025 11.6289L78.7453 11.325L79.1197 11.5016L84.0887 21.4937L84.7161 10.7798C84.7905 10.3338 85.2585 10.1276 85.508 10.4635C85.6474 10.6512 85.4735 11.4565 85.9011 11.5132L86.0868 9.88156C86.3571 9.85265 86.5205 9.84788 86.7216 10.0591C86.9869 10.3377 86.8245 10.9125 87.1697 10.9687C87.1571 9.30182 88.1691 8.91838 88.2608 10.7873Z" fill="black"/>
<path d="M42.9526 37.647C43.2536 38.0779 43.6277 38.2973 43.4952 38.9145L42.41 38.7327L42.1327 39.6421L41.1419 39.0971L41.3205 40.1848C41.0787 40.4289 39.6814 39.3238 39.4144 39.1011C37.6997 37.6714 36.4039 35.7371 34.7991 34.1973L34.3484 40.9158L33.802 41.0918L33.3496 40.3683C33.334 40.6625 33.1862 41.7339 32.7159 41.6365C32.2039 41.5306 32.4233 40.6464 32.0808 40.5496C32.2027 41.5908 31.1912 42.5797 30.9893 41.0944L30.5371 41.8176L29.9911 41.6415L30.8094 24.5804C30.6805 24.4415 29.5569 25.1485 29.5422 24.3095L30.8095 23.4926L29.722 23.5846C28.9857 23.126 30.5616 22.6668 30.6282 22.4038L29.3621 22.1322L30.8102 21.1333L29.5427 21.3121L29.625 20.7613C32.2089 19.3254 36.2383 18.1258 39.215 18.4319C44.9668 19.0232 44.8393 25.168 41.8598 28.8387C41.0724 29.8087 39.9993 30.4899 39.1665 31.4107C39.048 32.1072 43.8637 36.6253 44.3802 37.5822C44.2328 38.5992 43.1137 37.5127 42.9526 37.647ZM34.9794 28.7536C39.353 28.3597 42.2053 20.7692 35.3569 22.7803L34.9794 28.7536Z" fill="black"/>
<path d="M5.81829 39.2949L5.25638 46.9008C4.50141 47.1191 4.78848 46.2732 4.17106 46.3565L4.16933 47.2639L3.47203 47.2359L3.08456 45.9935L2.89045 47.6157L2.19819 47.6032L1.90477 46.7166L1.60747 47.6004L0.908818 47.6267L1.26986 39.6425L0.183886 39.6403C-0.00871564 38.8182 0.821632 39.0129 1.08836 38.5543L0 38.2793L1.2696 37.284L0.00557678 37.01L1.41677 35.8862L1.81315 29.2985C1.50011 29.1672 0.280544 29.906 0.184087 29.3856C0.0992785 28.9281 1.34535 28.6522 1.45167 28.2106L0.0951824 28.392C-0.333126 27.5579 1.26071 27.498 1.63192 26.9402L0.379049 27.2314L0.00228488 26.8499L1.63192 25.8514L0.0931894 26.0321L0.00330644 25.6717C5.39389 22.7591 15.993 20.2534 15.0421 29.9312C14.5722 34.7143 10.1509 38.099 5.81829 39.2949ZM8.99903 33.0441C11.6345 30.472 11.0937 25.7372 6.44952 27.6431L5.98328 34.5595C6.27141 34.8622 8.6343 33.4001 8.99903 33.0441Z" fill="black"/>
<path d="M68.1418 13.8749L66.3314 14.597C69.8404 13.6263 71.9586 15.8669 72.5929 19.1255C73.6472 24.5422 71.2068 35.9484 64.0665 35.845C57.2409 35.7461 58.0266 25.7535 59.3144 21.2741C60.4826 17.2108 63.3664 12.9843 68.1418 13.8749ZM66.2671 31.0487C68.0705 29.4777 68.8128 21.5703 67.9696 19.3995C67.6486 18.5729 67.046 18.0091 66.0926 18.215C65.9113 18.2542 65.9194 18.5911 65.7844 18.6845C65.6033 18.8099 65.3216 18.5479 65.1585 18.7644C63.3079 21.2196 62.8045 25.495 63.0619 28.4877C63.2109 30.2202 64.2721 32.7866 66.2671 31.0487Z" fill="black"/>
<path d="M21.2052 30.3872C23.0983 30.2428 24.9048 29.4929 26.8223 29.6622C27.0236 30.2631 25.5502 30.7512 25.5528 30.8408C28.1993 31.4452 25.9093 32.2097 25.9206 32.4742L26.4582 32.7513L26.4591 33.0158C26.185 33.8486 21.7344 34.169 20.9302 34.9207L20.6609 39.2799L28.4534 37.8283L27.7305 38.7326C27.9269 38.7742 28.7909 38.7852 28.6337 39.1856C28.451 39.6511 27.8234 39.4688 27.7303 39.8216C29.9935 40.0654 27.3616 40.8791 27.3651 41.003L28.4525 41.3632C27.8706 41.9505 26.8873 42.2062 26.0975 42.4539C23.2498 43.347 20.152 43.7771 17.3026 44.7397C16.9533 44.8213 16.9968 44.2562 16.7569 44.2018C16.3984 44.1205 15.201 44.738 16.1309 43.4546L15.2292 43.1817L16.13 42.1844L15.2295 41.9113L16.3153 40.9653L16.495 35.6487L15.7673 35.649L16.312 34.5629C14.9323 34.4057 15.8666 33.8118 16.4925 33.3805L15.8741 33.2935C15.3293 32.6043 16.614 32.5177 16.6785 32.2571C16.7883 30.7015 16.937 29.1287 17.0397 27.5737C17.0751 27.0371 16.2952 27.3979 15.9488 27.3014L16.0614 26.7436L16.8558 26.2152L15.8716 26.216C15.3971 25.4863 16.6498 25.4733 17.0361 25.033L15.7695 25.1237C15.6455 24.338 16.4518 24.1379 17.0357 24.0335L16.1299 23.8535L16.143 23.3245C16.7418 23.3148 17.2678 22.774 17.7206 22.6334C19.8255 21.9797 25.94 20.6198 28.0089 20.5829C28.3498 20.5769 28.5922 20.5364 28.8131 20.8601L27.3682 21.4975L28.6347 21.6776C28.731 22.3969 28.2624 22.4695 27.7275 22.6748C29.5219 22.9534 28.1696 23.7839 27.1868 23.8563C27.211 24.2105 27.8443 23.9696 28.1514 24.0669C28.3899 24.1425 28.5025 24.3295 28.4537 24.5776L21.5623 26.2988C21.4819 26.3621 21.2052 27.4748 21.2052 27.5744V30.3872Z" fill="black"/>
<path d="M56.728 16.4165L57.631 16.2325C57.8674 16.4673 57.1698 21.6553 56.7364 21.9612C56.2319 22.264 56.0117 21.6636 55.6401 21.4954L55.6374 22.5834C55.0139 22.6899 54.9071 22.2813 54.6416 21.8564C52.9786 24.0955 53.7193 20.8064 53.375 20.223C52.6715 19.0311 48.9071 20.5221 49.7397 23.1388C50.0636 24.1571 53.3913 25.1896 54.4653 25.8457C59.8026 29.1062 57.1158 36.5877 51.6115 38.0597C48.8581 38.7961 44.2184 38.5124 44.4865 34.7339L45.1259 34.7433C45.2807 34.5495 44.5166 32.5928 45.2168 32.2067C45.9236 32.3472 45.605 33.0084 46.0315 33.2899C46.0665 32.6447 45.4314 31.5828 46.3951 31.3805L47.1189 32.3826L47.2901 31.2196C48.235 30.7459 48.1118 32.2991 48.3307 32.8958C48.9789 34.6633 51.7769 34.2669 52.4673 32.7477C53.8261 29.7577 49.0414 28.9893 47.2426 27.634C43.3759 24.7208 45.5534 18.449 49.4996 16.528C51.7752 15.4202 53.4407 15.3894 55.759 15.8152C56.1972 15.8957 56.7284 15.2991 56.728 16.4165Z" fill="black"/>
<path d="M100.042 7.70209L100.382 7.67588C100.406 7.26885 100.556 7.31132 100.942 7.3405L103.461 19.9383C103.633 20.1879 104.978 19.8388 105.293 20.4992C105.509 20.9523 104.166 20.8587 104.026 21.2238L105.112 21.3146C105.223 21.9588 104.34 21.8064 104.208 22.2191L105.472 22.4932L104.387 23.0353C104.242 23.1199 104.221 23.2515 104.197 23.4032C104.084 24.1151 105.468 28.2395 105.112 28.573C104.379 28.7351 104.46 28.3966 104.027 28.028C104.005 28.4562 104.176 28.9881 103.755 29.2937L102.759 28.2103L102.756 29.4806C102.022 29.6431 102.104 29.3019 101.671 28.9353L101.219 29.842C100.661 29.6976 100.147 25.5845 99.8784 24.8668C99.6235 24.4931 95.7327 25.4446 95.4245 25.8575L93.9631 30.9332L93.4233 30.5711C93.1324 31.0729 93.0733 31.2171 92.4278 31.1145L92.0666 30.3867C92.0932 30.6983 91.8514 31.5628 91.4331 31.4748C90.9692 31.3772 91.3696 30.4261 90.9796 30.3884C90.8883 31.0638 90.609 31.4149 89.8909 31.2934L91.1612 26.3065L90.0721 26.2123C90.0428 25.552 90.9573 25.4965 91.1586 24.9448L90.4459 25.0568L90.0713 24.6727L91.1604 23.9449L90.0748 23.582C90.0831 23.2256 92.0326 22.971 92.0811 22.3282L95.691 8.61056C96.5087 8.42124 96.1798 9.1016 96.5935 9.33588C96.5838 8.70138 96.4535 8.09893 97.0484 7.70681L97.7733 8.79423L98.0633 7.54199L98.7461 7.5467L98.9533 8.42834L99.3148 7.15834C99.7941 7.08058 99.9759 7.24234 100.042 7.70209ZM98.9314 20.9305C99.0636 20.7398 98.3326 16.8718 98.2017 16.3472C98.1505 16.1419 98.1521 15.6656 97.8658 15.6891L96.5971 21.495L98.9314 20.9305Z" fill="black"/>
<path d="M111.619 5.18337L111.638 6.25025C112.239 6.38555 111.901 5.83823 112.036 5.47431C112.195 5.04781 112.738 4.66109 112.816 5.33844L111.637 23.6703C114.437 23.4689 117.143 22.4262 119.972 22.5842C120.059 22.9997 119.931 22.875 119.742 22.9928C119.158 23.3565 118.423 23.3603 117.797 23.5813C117.797 23.8564 119.729 23.396 119.971 23.947C120.191 24.4036 118.52 24.4891 118.522 24.6701L119.972 25.0322L118.34 25.7589C118.344 26.0041 119.77 25.6134 119.97 26.1218C119.591 26.6084 118.945 26.7276 118.379 26.8848C114.915 27.8471 110.953 28.1499 107.416 28.9314C107.303 28.4486 106.454 28.6076 106.382 28.2968C106.277 27.8412 107.079 27.8124 107.105 27.4847C105.147 27.3398 106.889 26.6203 106.926 26.4828C107.061 25.9852 105.982 26.2175 106.201 25.7612L107.115 25.1855C107.432 20.9741 107.386 16.7271 107.652 12.5136C107.753 10.9026 107.822 8.22714 108.24 6.75117C108.307 6.51271 108.49 5.99823 108.825 6.07069C109.29 6.17111 108.888 7.11908 109.279 7.15763C109.118 6.75345 109.631 4.6638 110.199 5.45025C110.428 5.76746 110.188 6.50442 110.548 6.613L110.907 5.24067C111.148 4.91203 111.282 5.07612 111.619 5.18337Z" fill="black"/>
<path d="M22.2935 54.3418L22.1846 54.9014C20.1222 55.621 17.9666 56.1194 15.8064 56.4659C13.7126 56.8018 11.0708 57.1588 8.97058 57.2427C8.24875 57.2715 7.09694 57.4253 6.52954 56.9722C6.55816 56.21 13.8304 54.8998 14.8276 54.7599C17.3452 54.4068 19.7387 54.2203 22.2935 54.3418Z" fill="black"/>
<path d="M10.1496 62.6878C9.98242 62.1139 10.7226 61.8455 11.1696 61.6214C13.8406 60.2821 19.4201 58.8152 22.3862 58.6973C22.8059 58.6806 23.2741 58.5781 23.5575 58.9686C22.3847 60.469 10.7018 63.256 10.1496 62.6878Z" fill="black"/>
<path d="M25.1913 62.8711C25.5927 63.2846 23.8437 64.1781 23.5041 64.3555C22.3839 64.9404 15.3751 67.6294 14.6821 67.0429C14.6498 66.5727 15.3065 66.312 15.6473 66.1059C18.3159 64.4921 22.1323 63.3762 25.1913 62.8711Z" fill="black"/>
</g>
<defs>
<clipPath id="clip0_462_14174">
<rect width="120" height="89" fill="white"/>
</clipPath>
</defs>
</svg>
