<svg width="146" height="70" viewBox="0 0 146 70" fill="none" xmlns="http://www.w3.org/2000/svg">
<g clip-path="url(#clip0_461_14132)">
<path d="M107.877 49.7498V53.2856C107.877 54.5128 106.355 55.6722 105.776 54.236L106.438 45.5421C106.861 45.1255 107.903 44.9539 108.358 45.3524C108.902 45.8279 109.616 49.085 109.986 49.9398L110.509 45.3996C110.794 44.7798 111.858 44.4954 112.187 45.1627C112.432 45.6604 111.964 49.1835 111.902 50.0385C111.798 51.4531 112.399 54.394 110.471 54.533C109.172 54.4029 108.903 50.4606 107.877 49.7498Z" fill="black"/>
<path d="M35.4723 59.3059V63.2239C35.4723 63.7557 33.7582 64.564 33.5776 63.2099C33.4106 61.958 33.632 57.7648 33.7414 56.3365C33.771 55.9495 33.8841 55.0236 34.0406 54.7238C34.3041 54.2192 35.4145 54.1681 35.765 54.5229C36.1701 54.9328 36.878 57.8045 37.1983 58.5412C37.2573 58.6016 37.5793 58.294 37.5793 58.2547V54.6234C37.5793 54.045 39.2404 53.023 39.4836 54.6377L39.0711 62.6101C36.8346 65.2056 36.7223 60.3349 35.4723 59.3059Z" fill="black"/>
<path d="M58.6514 56.4387C58.5473 57.9271 59.1748 60.6725 56.857 60.2367L56.5693 59.9475L56.9618 51.41C57.235 50.4635 60.3456 50.3544 61.1496 50.5993C63.1877 51.22 62.2828 55.0112 60.5883 55.7649L62.4547 58.9927C60.3907 61.2392 59.8079 57.5318 58.6514 56.4387ZM60.3263 52.2799C60.0764 52.0317 59.1503 51.8991 58.9249 52.223L58.842 54.7176C59.8757 54.7685 61.118 53.0661 60.3263 52.2799Z" fill="black"/>
<path d="M66.0677 49.602C70.7473 48.6401 70.0518 55.6323 68.3099 57.9549C66.9512 59.7665 64.0023 59.8396 63.2971 57.439C62.6948 55.3886 63.4587 50.1383 66.0677 49.602ZM66.4475 51.3075C65.0613 51.6941 64.5294 57.2665 66.0334 57.4033C66.9553 57.4872 67.3845 55.7351 67.4583 55.0028C67.5265 54.3259 67.6106 51.6901 67.0812 51.3675C66.8799 51.2333 66.6698 51.2455 66.4475 51.3075Z" fill="black"/>
<path d="M101.697 45.5917C104.913 45.0644 105.007 48.4751 104.788 50.7763C104.547 53.2953 103.263 55.7573 100.321 55.2808C97.1945 54.7743 98.0137 46.1957 101.697 45.5917ZM101.693 47.4913C100.369 47.8843 99.9683 52.4388 100.797 53.2861C101.601 54.1076 102.39 52.6739 102.604 52.0379C102.949 51.0176 103.521 46.9486 101.693 47.4913Z" fill="black"/>
<path d="M40.4792 62.717L40.7288 54.1341C41.0583 53.1183 43.3963 53.0459 44.2892 53.2793C47.0146 53.9915 46.4259 59.2118 45.1329 61.0131C44.2123 62.2957 41.9688 63.0809 40.4792 62.717ZM42.368 61.0255C44.1386 60.3269 44.4591 58.2269 44.2928 56.524C44.1767 55.3352 43.6068 54.3079 42.368 55.1963V61.0255Z" fill="black"/>
<path d="M32.5526 64.0381C32.31 64.2797 31.3259 64.3885 31.0527 64.1918L30.667 62.5689L28.9856 62.7713C28.8907 64.0385 28.3184 65.5833 26.8757 64.5465L28.9478 55.949C29.3498 54.9337 30.8711 54.4451 31.3586 55.6692C31.5621 58.0051 32.6605 60.7934 32.7761 63.0627C32.7913 63.3621 32.7677 63.8239 32.5526 64.0381ZM30.474 61.0087L30.014 58.3507C29.6521 58.688 29.1679 61.0273 29.3437 61.2157L30.474 61.0087Z" fill="black"/>
<path d="M92.3777 49.3502L92.1613 48.2291C91.2517 48.1635 90.4527 48.5961 90.6719 49.6102C90.8846 50.5938 92.9036 50.9665 93.5495 52.1003C95.0925 54.8089 91.8136 57.3954 89.2451 56.204C87.5535 55.4194 88.4849 53.2362 89.5626 53.5814C89.8894 53.6861 89.8692 54.3316 90.1396 54.5456C90.8207 55.0848 91.9992 54.5441 91.9987 53.6676C91.998 52.2599 88.8485 52.1082 88.7141 49.6476C88.5282 46.2432 94.0918 45.55 94.0954 48.1245C94.0968 49.0868 93.2729 49.5076 92.3777 49.3502Z" fill="black"/>
<path d="M117.071 45.9265L115.807 46.0999C114.586 47.9817 117.208 48.5663 118.002 49.6812C119.854 52.2825 117.059 54.9428 114.188 54.0606C113.059 53.714 112.456 51.9145 113.682 51.4169C114.815 50.9573 114.522 52.2586 114.96 52.5244C115.341 52.7555 116.185 52.6744 116.401 52.2359C117.307 50.3887 114.297 49.8571 113.768 48.5541C113.452 47.7764 113.543 46.3522 114.006 45.6398C115.351 43.569 119.608 43.8183 118.757 46.5603C118.448 47.5566 116.617 47.311 117.071 45.9265Z" fill="black"/>
<path d="M50.2676 61.1699C49.7318 60.6266 50.2097 59.5956 50.2197 59.0173C50.2592 56.727 50.327 54.4553 50.4436 52.1696C53.1398 50.3718 56.8473 51.3453 55.4328 55.2363C54.8716 56.7802 53.7198 57.3262 52.2208 57.7653C51.9531 58.7237 52.4298 60.1124 51.7598 60.9358C51.4253 61.3469 50.6706 61.5787 50.2676 61.1699ZM52.1379 56.056C53.6108 55.8439 54.2957 54.4126 53.6817 53.0824L52.328 52.9984L52.1379 56.056Z" fill="black"/>
<path d="M87.1296 47.7086C87.5977 48.1364 87.8303 49.3517 87.3045 49.7676L86.0269 49.8577L85.5481 48.8065C84.8143 48.9138 84.3071 49.2319 84.3079 50.0367C84.3096 51.6674 87.5898 51.5756 87.588 54.2415C87.5859 57.4835 82.3906 57.8847 82.0209 55.9545C81.8773 55.2047 82.3473 54.0641 83.2327 54.355C83.7017 54.509 83.8489 56.3457 85.4828 55.0234C86.4073 53.0017 83.3626 53.0628 82.6363 51.5219C81.2708 48.6246 85.2389 45.9809 87.1296 47.7086Z" fill="black"/>
<path d="M78.3998 49.9604L78.3797 52.2339C78.6059 52.4587 80.7071 51.3432 80.6959 52.7126C80.6857 53.9478 78.5416 53.5633 78.27 53.9408L78.1864 55.8659C79.0475 55.7 82.4389 55.3717 80.9807 57.0292C80.666 57.3868 77.4839 57.9677 76.9653 57.9097C76.5367 57.8618 76.2232 57.5558 76.2609 57.1182C76.3659 54.953 76.2758 52.5626 76.4668 50.4214C76.5446 49.5487 76.617 48.7488 77.5219 48.4162C78.1635 48.1805 81.2015 47.6578 81.5428 48.2176C82.6557 50.0431 78.6653 49.6496 78.3998 49.9604Z" fill="black"/>
<path d="M72.6582 50.7317L72.6334 52.998C73.5011 52.9698 74.7599 52.0904 74.8829 53.4455C74.7121 54.7522 72.7768 54.3535 72.5236 54.7058C72.1947 56.3332 73.2606 59.1212 70.5522 58.3214C70.4469 55.3994 70.6947 52.4638 71.0033 49.5576C71.2884 48.9479 75.0346 48.4118 75.5074 48.6969C76.0548 49.027 75.8269 49.9767 75.3129 50.2269C74.8595 50.4475 72.8259 50.4671 72.6582 50.7317Z" fill="black"/>
<path d="M96.5264 46.1472C96.8046 46.0931 97.04 46.092 97.2642 46.2909C97.8235 46.7464 97.213 50.2954 97.1524 51.1849C97.0855 52.1663 97.3842 54.9408 96.7686 55.5795C96.2353 56.1328 94.9693 55.9395 95.0355 55.0151C95.2957 52.6928 95.2004 50.241 95.4293 47.9367C95.503 47.1946 95.6699 46.3138 96.5264 46.1472Z" fill="black"/>
<path d="M50.049 69.7986C49.4042 68.8719 51.7081 68.4746 51.9439 67.9993C52.1664 67.5508 50.6613 67.5765 50.4079 67.4332C50.1395 67.2813 50.3854 66.856 50.5062 66.7569C51.0527 66.3087 52.1693 66.5826 52.7095 66.9504L53.0974 65.5198C52.1548 65.316 50.1033 66.6076 50.3046 64.8373C50.536 64.5056 54.4623 63.9187 54.8281 64.1704C55.6189 64.7147 54.4454 65.2622 54.3444 65.4263C54.1301 65.7747 54.1535 66.7878 53.8633 67.2495C53.8833 67.8951 55.9148 68.1517 54.9155 69.0551C54.1339 69.7618 53.3728 68.4312 53.0244 68.492C52.6153 68.9766 50.5747 70.5542 50.049 69.7986Z" fill="black"/>
<path d="M93.8469 60.1161C94.5354 60.7905 93.3001 62.3175 93.1259 63.0416L93.2151 63.3176C95.8767 65.0778 94.1649 66.2459 92.1026 64.29C91.4158 64.7646 90.0029 66.321 89.0996 65.7128C88.2361 65.1313 90.7006 63.9488 91.1241 63.5175C91.4976 63.1371 92.2812 62.0093 92.364 61.5035C92.4173 61.178 92.3863 61.2011 92.112 61.2506C91.2149 61.4126 90.3496 61.7756 89.4244 61.8032C88.7375 60.917 89.2503 60.668 90.1023 60.3958C90.8179 60.1672 93.3147 59.5947 93.8469 60.1161Z" fill="black"/>
<path d="M60.9488 65.0391C61.0831 65.863 60.8268 66.0776 60.1854 66.4723L61.7042 67.6415C61.1259 69.6247 59.3819 67.104 59.0359 67.3336C58.6509 68.4182 57.3956 70.0251 56.2449 68.8652C56.1841 68.1567 56.9967 68.2351 57.482 67.7913C57.8115 67.49 57.9812 67.0092 58.2617 66.6625C58.2406 66.066 56.6487 67.0227 56.3733 66.2569L56.3686 65.6292L57.5011 65.4208C57.5895 64.8204 56.9793 64.1453 57.6019 63.7029C58.5663 63.5334 58.3341 64.9101 58.8296 65.1335L60.9488 65.0391Z" fill="black"/>
<path d="M87.7458 61.0452C87.8861 62.8021 86.5014 64.7692 85.1741 65.799C84.4183 66.3855 82.8874 67.4687 82.4124 66.1123C83.491 65.1896 84.642 64.9326 85.5455 63.685C86.2368 62.7306 86.4906 60.5131 87.7458 61.0452Z" fill="black"/>
<path d="M74.3572 63.127C74.5177 65.3501 71.9906 68.5935 69.5879 67.8863L69.6555 67.1326C71.1157 66.6077 72.2172 65.9036 72.964 64.5101C73.4104 63.6771 73.0113 62.8526 74.3572 63.127Z" fill="black"/>
<path d="M81.0306 63.3465L81.1674 64.0804C80.9605 64.3245 80.6655 64.5475 80.3502 64.6176C79.5078 64.8049 77.062 65.0444 76.1748 65.056C75.4125 65.066 75.1192 64.8356 75.3966 64.0703C75.6089 63.7721 80.7027 63.1394 81.0306 63.3465Z" fill="black"/>
<path d="M66.6074 63.7036C68.2613 63.2451 66.8639 66.2514 66.4713 66.8229C66.0494 67.4371 64.318 68.8803 63.6238 68.3905C62.8029 67.8114 64.8253 67.026 65.2462 66.5562C65.7832 65.9568 66.4543 63.7461 66.6074 63.7036Z" fill="black"/>
<path d="M82.5299 61.0455C83.1456 60.8431 84.6745 61.8683 84.4816 62.6106L84.1238 63.0464C83.7504 63.2378 81.0921 61.5182 82.5299 61.0455Z" fill="black"/>
<path d="M69.3237 63.9206C69.8505 63.776 71.2943 64.4718 71.0987 65.1299C70.8077 66.1094 67.5928 64.396 69.3237 63.9206Z" fill="black"/>
<path d="M71.4551 62.5794L71.4002 63.3326C70.5755 63.8451 69.7202 63.3235 69.188 62.6507C69.8086 61.7922 70.6853 62.2335 71.4551 62.5794Z" fill="black"/>
<path d="M63.6056 64.3021C63.7863 64.4109 64.4025 66.0497 63.5331 66.0027C62.3398 65.7815 62.5125 63.6439 63.6056 64.3021Z" fill="black"/>
<path d="M64.2053 63.8936C65.2416 63.4502 65.7491 65.3951 65.0643 65.6114C64.2944 65.8544 64.1503 64.3687 64.2053 63.8936Z" fill="black"/>
<path d="M71.231 4.89676C71.872 5.48039 71.7244 7.29992 71.6499 8.15569C71.0523 15.0177 68.3637 23.1214 67.3246 30.2149C67.0771 31.9043 66.8758 33.6239 66.6962 35.3216C66.631 35.9377 66.7763 36.6154 66.6829 37.2196C66.4418 38.7791 63.86 39.2567 63.0837 37.7756L62.4828 35.9902C59.1599 41.591 53.6898 40.605 54.2468 33.4116C54.369 31.8344 55.0342 30.3031 55.107 28.7273L53.1796 29.4799C52.7093 33.5993 50.8904 41.0485 45.7126 41.343C38.642 41.7451 41.0305 30.6102 43.9044 27.1056C44.7012 26.134 46.0835 25.5376 46.5271 25.0388C46.7185 24.8236 46.7581 24.2854 47.1764 23.8717C48.395 22.6664 50.4041 22.8944 51.6286 23.9771C52.2212 24.5012 52.6808 26.0124 53.191 26.058C53.617 26.0961 56.4011 25.0378 56.8697 24.7524C57.7254 24.2311 58.1439 23.2599 58.9413 22.6147C60.0264 21.7367 61.2035 21.2031 62.5876 21.644C63.4481 21.9182 63.6147 22.587 64.3945 22.8005C65.0103 19.6067 65.6501 16.4076 66.4044 13.2425C66.8134 11.5266 67.8657 6.24195 68.7996 5.12054C69.4404 4.35098 70.4719 4.20551 71.231 4.89676ZM61.4702 25.895C59.6171 26.2862 58.095 32.0907 58.1153 33.79C58.1548 37.0851 60.0237 35.4463 61.1441 33.7954C62.2516 32.1638 63.6813 28.7558 62.8669 26.9064C62.5506 26.188 62.3565 25.7079 61.4702 25.895ZM47.3445 28.5348C45.6847 29.8771 44.2431 34.9194 45.1424 36.7561C46.0494 38.6087 47.7459 36.6612 48.3389 35.5439C48.8096 34.6569 49.8541 31.4361 49.8298 30.5229C49.8129 29.8877 47.3233 29.6469 47.3445 28.5348Z" fill="black"/>
<path d="M131.627 18.0229C129.618 20.0321 128.266 23.0623 127.134 25.6739C126.535 27.0551 125.085 31.9327 123.918 32.4032C122.856 32.8312 121.308 32.5944 121.105 31.2946C120.642 28.3361 122.365 24.4789 122.433 21.4632L120.419 22.032C119.877 26.3276 117.334 34.3153 111.657 33.4571C105.299 32.4957 108.561 20.8645 112.108 18.135C112.563 17.7846 113.572 17.4038 113.811 17.1587C114.144 16.8178 114.037 16.2792 114.589 15.8332C116.639 14.1787 119.64 16.1381 120.167 18.3729C120.504 18.5826 122.832 18.1912 123.193 17.9193C123.767 17.4859 123.771 15.0646 125.216 14.7783C128.074 14.2121 127.272 17.913 127.127 19.551C128.36 17.6564 130.41 13.9239 133.058 14.0012C135.676 14.0776 135.273 17.6499 135.024 19.4037C134.651 22.0273 133.022 26.6662 133.168 29.0026C133.217 29.7837 134.152 30.0389 133.356 31.1194C132.524 32.2478 130.31 32.3798 129.669 30.9678C128.311 27.9763 131.418 21.3164 131.627 18.0229ZM116.848 22.449C115.763 22.1526 115.098 21.4019 114.486 20.511C114.107 20.4998 112.888 23.045 112.711 23.5156C112.206 24.8643 110.855 29.7898 113.33 29.6965C115.387 29.6191 117.105 24.2153 116.848 22.449Z" fill="black"/>
<path d="M31.6421 18.0215L45.9037 16.2949C46.9458 16.3692 48.3837 15.9984 49.0413 17.0099C49.4542 18.3616 47.1069 19.1083 46.1272 19.3846C41.2637 20.7563 35.6983 20.9192 30.7767 22.2248C29.7921 26.6518 28.862 31.1053 28.0623 35.5707C27.6294 37.9878 27.5004 41.0098 26.9602 43.2626C26.6097 44.724 25.222 45.5462 23.8802 44.5925C23.1636 44.083 23.0043 42.6667 23.0181 41.8248C23.0512 39.8036 23.5326 37.2238 23.8482 35.1884C24.4825 31.0987 25.444 27.0416 26.277 22.993C24.134 23.3288 21.9864 23.833 19.8338 24.1114C18.5867 24.2727 14.3406 24.961 13.5436 24.1359C12.3848 22.936 14.3992 21.7683 15.4018 21.4093C19.0709 20.0957 23.6282 19.8985 27.3904 18.7485C28.077 16.2244 28.4094 13.3223 29.3887 10.9015C29.9895 9.41648 31.763 7.54879 32.7395 9.76009C33.5384 11.569 31.9047 15.9887 31.6421 18.0215Z" fill="black"/>
<path d="M0.467604 50.656C-0.351344 49.904 0.12875 45.5653 0.251954 44.3273C0.821656 38.6027 2.30062 32.2566 3.57704 26.6215C4.4352 22.833 5.37711 17.6697 6.78322 14.1485C7.27199 12.9246 7.75301 11.9855 9.28504 12.3297C10.8565 12.6827 10.8254 14.9417 10.738 16.1833C10.3469 21.7406 7.78667 29.4745 6.60773 35.188C5.76 39.2964 5.24364 43.6125 4.35243 47.6542C4.11923 48.7118 3.87512 49.95 2.89986 50.6005C2.22072 51.0535 1.10739 51.2435 0.467604 50.656Z" fill="black"/>
<path d="M18.2311 31.9748C14.9332 36.0796 13.6996 41.365 11.617 46.1102C7.76622 48.3772 7.97987 45.268 8.29977 42.4181C8.64457 39.3464 9.34035 35.7173 10.0556 32.7027C10.3626 31.4087 10.5628 29.1726 12.2125 28.9253C14.8718 28.5267 13.8203 31.9727 13.9223 33.5028C15.1281 31.4219 16.7954 28.1209 19.4958 27.7859C21.2785 27.5648 22.227 28.8875 22.2628 30.5504C22.3203 33.2252 19.8291 41.0025 20.3786 42.7351C20.4722 43.0301 20.8846 43.1527 20.9066 43.5271C21.0292 45.6115 17.0328 46.5171 16.5544 43.8747C15.884 40.172 18.1703 35.6953 18.2311 31.9748Z" fill="black"/>
<path d="M77.2281 34.4597C76.916 34.1724 76.2748 35.4738 76.0759 35.6976C73.8521 38.2009 70.158 38.3903 69.2372 34.6938C68.5969 32.1232 70.1399 24.1044 71.511 21.7778C72.3206 20.4038 74.5866 19.7049 75.0861 21.6088C75.0672 24.0891 72.3956 31.0332 73.3489 33.0753C74.2255 34.9532 75.7833 31.1133 76.0319 30.4934C77.13 27.755 77.9462 22.7884 79.2972 20.564C79.982 19.4365 81.9966 19.0006 82.3606 20.2613C82.8256 21.8721 81.2178 27.427 80.9246 29.4504C80.8009 30.3034 80.3559 32.5589 80.9523 33.1342C81.628 33.7862 82.7758 33.2783 82.3606 35.0883C81.8369 37.3712 77.1728 37.1498 77.2281 34.4597Z" fill="black"/>
<path d="M138.497 25.8872C138.624 27.0765 138.075 28.6237 139.771 28.6265C141.299 28.629 142.003 27.3792 141.77 25.9643C141.525 24.4796 138.808 22.9048 137.849 21.6591C134.459 17.2551 140.028 11.0694 144.539 13.0728C146.575 13.977 146.418 17.6925 144.473 18.3194C142.327 19.0113 143.299 17.0466 143.1 16.4327C142.737 15.3158 140.136 16.3782 140.722 18.6026C141.033 19.7817 143.316 21.1509 144.177 22.2255C147.219 26.0228 145.041 31.6116 140.16 31.9815C137.714 32.1669 134.83 31.2722 135.314 28.2933C135.528 26.9767 137.015 25.0352 138.497 25.8872Z" fill="black"/>
<path d="M93.2549 24.4572C92.8377 24.872 91.8609 25.2708 91.3267 24.8889C90.4308 24.2484 91.2751 23.0454 90.9323 22.22C90.1943 21.1018 88.2367 24.4837 87.9794 25.0226C87.2508 26.5489 85.9441 30.6921 87.577 31.8754C89.6701 33.3923 90.9111 29.4096 92.3872 29.5873C94.3291 29.8211 92.7452 32.8126 92.0575 33.6786C90.4937 35.6479 87.1283 36.7391 84.9001 35.3113C79.6635 31.9555 85.2972 17.4357 91.6746 18.2317C94.4317 18.5758 94.7553 22.9658 93.2549 24.4572Z" fill="black"/>
<path d="M36.0487 27.9616C37.4597 26.398 39.0297 23.9522 41.4949 24.3423C43.1761 24.6084 42.9867 26.782 41.802 27.6838C41.1212 28.202 40.4174 28.0463 39.6224 28.567C37.6338 29.8693 36.051 33.8125 35.4215 36.0339C34.9939 37.5429 34.5348 41.7049 33.7499 42.5842C32.1403 44.3873 30.2293 43.1818 30.2877 40.8594C30.3655 37.7651 31.5103 29.7834 32.7536 27.0648C34.0106 24.3162 36.591 24.7099 36.0487 27.9616Z" fill="black"/>
<path d="M106.487 20.1759C106.855 20.7478 106.95 21.2677 106.931 21.9445C106.89 23.4043 105.09 30.2061 105.959 30.9267C106.167 31.0996 106.816 31.1176 106.894 31.2359C107.334 33.4087 104.733 34.9899 102.903 33.7849C100.719 32.3467 102.173 25.9265 102.801 23.7575C103.314 21.9865 104.062 18.9946 106.487 20.1759Z" fill="black"/>
<path d="M106.29 14.2405C109.401 13.542 109.089 18.1767 106.622 18.5847C103.298 19.1342 103.911 14.7745 106.29 14.2405Z" fill="black"/>
<path d="M121.246 36.809C126.728 36.6533 135.48 36.197 140.679 37.1834C141.895 37.4142 143.662 37.993 142.978 39.5713C142.36 40.9953 139.917 40.3852 138.82 40.3763C100.01 40.0616 56.7082 45.1397 19.0324 54.2736C14.6779 55.3293 9.70976 57.1384 5.4387 57.9094C3.84508 58.197 1.73315 57.7808 2.62633 55.6772C3.20435 54.3158 8.27299 53.0963 9.7636 52.6703C26.989 47.7465 45.9734 44.578 63.7528 42.1314C82.4443 39.5593 102.384 37.3447 121.246 36.809Z" fill="black"/>
<path d="M103.28 9.22957L116.595 7.89555C117.798 8.0999 122.978 7.34197 123.362 8.60086C123.773 9.95132 121.549 10.4829 120.59 10.7356L102.411 13.4293C101.299 17.8948 100.285 22.4256 99.5049 26.9659C99.046 29.6383 98.9818 32.4715 98.2004 35.0296C94.7464 36.7093 94.7096 33.7241 94.8538 31.1168C95.0225 28.0652 95.7287 24.8271 96.2531 21.8101C96.6954 19.2654 97.2704 16.742 97.7243 14.2017C94.7954 14.3382 91.9157 15.068 89.0075 15.3451C87.9311 15.4476 83.994 15.9945 83.7401 14.677C83.4254 13.0433 85.1478 12.6597 86.3435 12.3048C90.3537 11.1141 94.7514 10.8834 98.8319 9.95362C99.7212 7.45241 100.015 4.16133 101.081 1.78105C101.703 0.390451 103.482 -0.97705 104.386 0.96152C105.189 2.68667 103.635 7.27967 103.28 9.22957Z" fill="black"/>
</g>
<defs>
<clipPath id="clip0_461_14132">
<rect width="146" height="70" fill="white"/>
</clipPath>
</defs>
</svg>
